<svg xmlns="http://www.w3.org/2000/svg" width="116" height="37" viewBox="0 0 116 37" fill="none">
    <rect width="116" height="37" rx="16" fill="#9A969C"/>
    <path d="M20.1855 16.9893C20.1855 17.7594 20.0876 18.4613 19.8916 19.0947C19.7002 19.7236 19.4108 20.266 19.0234 20.7217C18.6361 21.1729 18.1507 21.5215 17.5674 21.7676C16.984 22.0137 16.3005 22.1367 15.5166 22.1367C14.7191 22.1367 14.0264 22.0137 13.4385 21.7676C12.8551 21.5215 12.3698 21.1706 11.9824 20.7148C11.5996 20.2591 11.3125 19.7145 11.1211 19.0811C10.9297 18.4476 10.834 17.7458 10.834 16.9756C10.834 15.9456 11.0026 15.0479 11.3398 14.2822C11.6816 13.512 12.1989 12.915 12.8916 12.4912C13.5889 12.0628 14.4684 11.8486 15.5303 11.8486C16.5693 11.8486 17.4329 12.0605 18.1211 12.4844C18.8092 12.9082 19.3242 13.5052 19.666 14.2754C20.0124 15.041 20.1855 15.9456 20.1855 16.9893ZM12.5566 16.9893C12.5566 17.7594 12.6615 18.4271 12.8711 18.9922C13.0807 19.5527 13.402 19.9857 13.835 20.291C14.2725 20.5918 14.833 20.7422 15.5166 20.7422C16.2048 20.7422 16.7653 20.5918 17.1982 20.291C17.6312 19.9857 17.9502 19.5527 18.1553 18.9922C18.3604 18.4271 18.4629 17.7594 18.4629 16.9893C18.4629 15.818 18.2282 14.902 17.7588 14.2412C17.2939 13.5758 16.5511 13.2432 15.5303 13.2432C14.8467 13.2432 14.2839 13.3936 13.8418 13.6943C13.4043 13.9951 13.0807 14.4258 12.8711 14.9863C12.6615 15.5423 12.5566 16.21 12.5566 16.9893ZM26.1123 14.2891C26.9645 14.2891 27.6276 14.5101 28.1016 14.9521C28.5801 15.3896 28.8193 16.0938 28.8193 17.0645V22H27.2129V17.3652C27.2129 16.7773 27.0921 16.3376 26.8506 16.0459C26.609 15.7497 26.2354 15.6016 25.7295 15.6016C24.9958 15.6016 24.4854 15.8271 24.1982 16.2783C23.9157 16.7295 23.7744 17.3835 23.7744 18.2402V22H22.168V14.4326H23.4189L23.6445 15.458H23.7334C23.8975 15.1937 24.1003 14.9772 24.3418 14.8086C24.5879 14.6354 24.8613 14.5055 25.1621 14.4189C25.4674 14.3324 25.7842 14.2891 26.1123 14.2891ZM34.083 14.2891C34.7575 14.2891 35.3363 14.4281 35.8193 14.7061C36.3024 14.984 36.6738 15.3783 36.9336 15.8887C37.1934 16.3991 37.3232 17.0098 37.3232 17.7207V18.582H32.2715C32.2897 19.3158 32.4857 19.8809 32.8594 20.2773C33.2376 20.6738 33.7663 20.8721 34.4453 20.8721C34.9284 20.8721 35.3613 20.8265 35.7441 20.7354C36.1315 20.6396 36.5303 20.5007 36.9404 20.3184V21.624C36.5622 21.8018 36.1771 21.9316 35.7852 22.0137C35.3932 22.0957 34.9238 22.1367 34.377 22.1367C33.6341 22.1367 32.9801 21.9932 32.415 21.7061C31.8545 21.4144 31.4147 20.9814 31.0957 20.4072C30.7812 19.833 30.624 19.1198 30.624 18.2676C30.624 17.4199 30.7676 16.6999 31.0547 16.1074C31.3418 15.515 31.7451 15.0638 32.2646 14.7539C32.7842 14.444 33.3903 14.2891 34.083 14.2891ZM34.083 15.499C33.5771 15.499 33.167 15.6631 32.8525 15.9912C32.5426 16.3193 32.3604 16.8001 32.3057 17.4336H35.751C35.7464 17.0553 35.6826 16.7204 35.5596 16.4287C35.4411 16.137 35.2588 15.9092 35.0127 15.7451C34.7712 15.5811 34.4613 15.499 34.083 15.499ZM38.4785 18.9238V17.5635H42.0059V18.9238H38.4785ZM49.833 21.9932L48.876 18.4727C48.8304 18.2995 48.7757 18.0898 48.7119 17.8438C48.6481 17.5977 48.5843 17.3447 48.5205 17.085C48.4567 16.8206 48.3975 16.5768 48.3428 16.3535C48.2926 16.1302 48.2539 15.957 48.2266 15.834H48.1719C48.1491 15.957 48.1126 16.1302 48.0625 16.3535C48.0124 16.5768 47.9554 16.8206 47.8916 17.085C47.8278 17.3493 47.764 17.6068 47.7002 17.8574C47.641 18.1081 47.5863 18.3223 47.5361 18.5L46.5312 21.9932H44.7676L42.6484 14.4258H44.2754L45.2598 18.1855C45.3236 18.4408 45.3851 18.7165 45.4443 19.0127C45.5081 19.3089 45.5628 19.5915 45.6084 19.8604C45.654 20.1292 45.6882 20.3503 45.7109 20.5234H45.7656C45.7839 20.4004 45.8089 20.2454 45.8408 20.0586C45.8727 19.8672 45.9092 19.6689 45.9502 19.4639C45.9912 19.2542 46.0322 19.0583 46.0732 18.876C46.1143 18.6891 46.153 18.5387 46.1895 18.4248L47.3516 14.4258H49.1084L50.2227 18.4248C50.2728 18.598 50.3275 18.8167 50.3867 19.0811C50.446 19.3408 50.4984 19.6029 50.5439 19.8672C50.5941 20.127 50.626 20.3434 50.6396 20.5166H50.6943C50.7126 20.3617 50.7445 20.152 50.79 19.8877C50.8402 19.6188 50.8971 19.334 50.9609 19.0332C51.0247 18.7279 51.0908 18.4453 51.1592 18.1855L52.1641 14.4258H53.7637L51.6309 21.9932H49.833ZM58.0293 14.2891C58.9863 14.2891 59.7087 14.501 60.1963 14.9248C60.6885 15.3486 60.9346 16.0094 60.9346 16.9072V22H59.793L59.4854 20.9268H59.4307C59.2165 21.2002 58.9954 21.4258 58.7676 21.6035C58.5397 21.7812 58.2754 21.9134 57.9746 22C57.6784 22.0911 57.3161 22.1367 56.8877 22.1367C56.4365 22.1367 56.0332 22.0547 55.6777 21.8906C55.3223 21.722 55.042 21.4668 54.8369 21.125C54.6318 20.7832 54.5293 20.3503 54.5293 19.8262C54.5293 19.0469 54.8187 18.4613 55.3975 18.0693C55.9808 17.6774 56.8604 17.4609 58.0361 17.4199L59.3486 17.3721V16.9756C59.3486 16.4515 59.2256 16.0778 58.9795 15.8545C58.738 15.6312 58.3962 15.5195 57.9541 15.5195C57.5758 15.5195 57.209 15.5742 56.8535 15.6836C56.498 15.793 56.1517 15.9274 55.8145 16.0869L55.2949 14.9521C55.6641 14.7562 56.0833 14.5967 56.5527 14.4736C57.0267 14.3506 57.5189 14.2891 58.0293 14.2891ZM59.3418 18.3838L58.3643 18.418C57.5622 18.4453 56.9993 18.582 56.6758 18.8281C56.3522 19.0742 56.1904 19.4115 56.1904 19.8398C56.1904 20.2135 56.3021 20.487 56.5254 20.6602C56.7487 20.8288 57.0426 20.9131 57.4072 20.9131C57.9632 20.9131 58.4235 20.7559 58.7881 20.4414C59.1572 20.1224 59.3418 19.6553 59.3418 19.04V18.3838ZM62.042 14.4326H63.792L65.3438 18.7529C65.4121 18.9489 65.4736 19.1426 65.5283 19.334C65.5876 19.5208 65.6377 19.7054 65.6787 19.8877C65.7243 20.07 65.7607 20.2523 65.7881 20.4346H65.8291C65.8747 20.1976 65.9385 19.9333 66.0205 19.6416C66.1071 19.3454 66.2028 19.0492 66.3076 18.7529L67.7979 14.4326H69.5273L66.2803 23.0391C66.0934 23.5312 65.8633 23.9505 65.5898 24.2969C65.321 24.6478 65.002 24.9121 64.6328 25.0898C64.2637 25.2721 63.8421 25.3633 63.3682 25.3633C63.1403 25.3633 62.9421 25.3496 62.7734 25.3223C62.6048 25.2995 62.4613 25.2744 62.3428 25.2471V23.9619C62.4385 23.9847 62.5592 24.0052 62.7051 24.0234C62.8509 24.0417 63.0013 24.0508 63.1562 24.0508C63.4434 24.0508 63.6917 23.9938 63.9014 23.8799C64.111 23.766 64.2887 23.6042 64.4346 23.3945C64.5804 23.1895 64.7012 22.9548 64.7969 22.6904L65.0635 21.9795L62.042 14.4326Z" fill="white"/>
    <circle cx="92" cy="19" r="10" fill="#61297F"/>
    <path d="M90.8135 22.248C90.5895 22.248 90.3655 22.163 90.1945 21.992L87.8214 19.619C87.4794 19.277 87.4794 18.723 87.8214 18.382C88.1634 18.04 88.7164 18.039 89.0584 18.381L90.8135 20.136L94.9415 16.008C95.2835 15.666 95.8365 15.666 96.1785 16.008C96.5205 16.35 96.5205 16.904 96.1785 17.246L91.4325 21.992C91.2615 22.163 91.0375 22.248 90.8135 22.248Z" fill="white"/>
</svg>