<svg xmlns="http://www.w3.org/2000/svg" width="25" height="25" viewBox="0 0 25 25" fill="none">
    <path d="M12.7058 14.4875L11.4238 16.0002H19.8337V14.4875H12.7058ZM14.4237 0.4624V7.69288H16.321V0.4624H14.4237ZM8.83417 2.71872V4.35968H22.2439V2.71872H8.83417ZM7.19321 6.84676V8.51336H23.8079V6.84676H7.19321ZM13.6801 12.0004C12.3212 14.5388 9.78285 16.7182 7.03937 18.0771C7.47525 18.3848 8.14189 19.077 8.44957 19.4104C11.1674 17.8463 13.8852 15.4105 15.4493 12.4876L13.6801 12.0004ZM19.4491 14.4875V14.8464C18.1158 18.513 13.757 21.3334 6.39836 22.5384C6.78297 22.9487 7.24449 23.6153 7.44961 24.0768C15.2185 22.6923 19.7824 19.5129 21.4747 14.9746L20.1927 14.4106L19.8337 14.4875H19.4491ZM12.2956 15.6413L10.7059 16.231C13.1417 20.359 17.6543 23.0256 23.2438 24.1025C23.5002 23.6153 24.013 22.8461 24.4233 22.4359C18.962 21.5641 14.4237 19.2309 12.2956 15.6413ZM16.8851 8.25696V10.7953C16.8851 12.4619 17.3466 12.8978 19.244 12.8978C19.603 12.8978 21.6285 12.8978 22.0388 12.8978C23.4233 12.8978 23.9361 12.385 24.1156 10.103C23.6284 10.0005 22.9362 9.76972 22.5772 9.51332C22.5259 11.1799 22.4234 11.3594 21.808 11.3594C21.3978 11.3594 19.7568 11.3594 19.4235 11.3594C18.7312 11.3594 18.603 11.2825 18.603 10.7953V8.25696H16.8851ZM11.8084 8.4108C11.4238 10.5389 10.2956 11.8209 6.96245 12.5645C7.32141 12.8722 7.80857 13.5644 7.98805 13.9747C11.7571 12.9491 13.116 11.2312 13.5776 8.4108H11.8084ZM0.834485 3.35972C2.39853 4.5648 4.27025 6.3596 5.14201 7.5134L6.55221 6.07756C5.65481 4.92376 3.70617 3.25716 2.14212 2.10336L0.834485 3.35972ZM0.526805 20.436L2.19341 21.641C3.57796 19.3847 5.21893 16.3079 6.50093 13.667L5.06509 12.4619C3.68053 15.2823 1.80881 18.513 0.526805 20.436Z" fill="#0C1825"/>
</svg>