<svg xmlns="http://www.w3.org/2000/svg" width="18" height="23" viewBox="0 0 18 23" fill="none">
    <g clip-path="url(#clip0_1_6084)">
        <path d="M14.9488 12.5748C14.9217 9.79581 17.2233 8.44279 17.3296 8.38025C16.0266 6.47893 14.0065 6.22042 13.2956 6.19957C11.6007 6.02237 9.95578 7.21694 9.09268 7.21694C8.21082 7.21694 6.87865 6.21833 5.44641 6.24752C3.5993 6.27671 1.8731 7.3462 0.926614 9.0036C-1.02473 12.3872 0.430437 17.3573 2.30257 20.0925C3.24072 21.4309 4.33314 22.9278 5.76538 22.8736C7.16635 22.8152 7.68963 21.9813 9.38038 21.9813C11.0565 21.9813 11.5485 22.8736 13.01 22.8403C14.5131 22.8152 15.4596 21.4956 16.3623 20.1426C17.4464 18.6082 17.88 17.0967 17.8967 17.0196C17.8612 17.007 14.978 15.9063 14.9488 12.5748Z" fill="black"/>
        <path d="M12.1886 4.40244C12.9412 3.46012 13.4603 2.1759 13.3143 0.875C12.224 0.925035 10.8606 1.62969 10.0746 2.55116C9.38038 3.36422 8.75703 4.69639 8.91964 5.94726C10.1455 6.03899 11.4026 5.33017 12.1886 4.40244Z" fill="black"/>
    </g>
    <defs>
        <clipPath id="clip0_1_6084">
            <rect width="18" height="22" fill="white" transform="translate(0 0.875)"/>
        </clipPath>
    </defs>
</svg>