<svg xmlns="http://www.w3.org/2000/svg" width="24" height="24" viewBox="0 0 24 24" fill="none">
    <path d="M17.8506 2.49996H22.5173C22.8267 2.49996 23.1234 2.62288 23.3422 2.84167C23.561 3.06046 23.6839 3.35721 23.6839 3.66663V22.3333C23.6839 22.6427 23.561 22.9395 23.3422 23.1583C23.1234 23.377 22.8267 23.5 22.5173 23.5H1.51725C1.20783 23.5 0.911087 23.377 0.692295 23.1583C0.473502 22.9395 0.350586 22.6427 0.350586 22.3333V3.66663C0.350586 3.35721 0.473502 3.06046 0.692295 2.84167C0.911087 2.62288 1.20783 2.49996 1.51725 2.49996H6.18392V0.166626H8.51725V2.49996H15.5173V0.166626H17.8506V2.49996ZM15.5173 4.83329H8.51725V7.16663H6.18392V4.83329H2.68392V9.49996H21.3506V4.83329H17.8506V7.16663H15.5173V4.83329ZM21.3506 11.8333H2.68392V21.1666H21.3506V11.8333Z" fill="#3E4958"/>
</svg>