<svg xmlns="http://www.w3.org/2000/svg" width="47" height="155" viewBox="0 0 47 155" fill="none">
    <path d="M6.71429 17.0714C10.4225 17.0714 13.4286 14.0653 13.4286 10.3571C13.4286 6.64891 10.4225 3.64282 6.71429 3.64282C3.00609 3.64282 0 6.64891 0 10.3571C0 14.0653 3.00609 17.0714 6.71429 17.0714Z" fill="#7913E5" fill-opacity="0.28"/>
    <path d="M6.71429 50.6429C10.4225 50.6429 13.4286 47.6368 13.4286 43.9286C13.4286 40.2204 10.4225 37.2144 6.71429 37.2144C3.00609 37.2144 0 40.2204 0 43.9286C0 47.6368 3.00609 50.6429 6.71429 50.6429Z" fill="#7913E5" fill-opacity="0.28"/>
    <path d="M6.71429 84.2142C10.4225 84.2142 13.4286 81.2081 13.4286 77.4999C13.4286 73.7917 10.4225 70.7856 6.71429 70.7856C3.00609 70.7856 0 73.7917 0 77.4999C0 81.2081 3.00609 84.2142 6.71429 84.2142Z" fill="#7913E5" fill-opacity="0.28"/>
    <path d="M6.71429 117.786C10.4225 117.786 13.4286 114.78 13.4286 111.071C13.4286 107.363 10.4225 104.357 6.71429 104.357C3.00609 104.357 0 107.363 0 111.071C0 114.78 3.00609 117.786 6.71429 117.786Z" fill="#7913E5" fill-opacity="0.28"/>
    <path d="M6.71429 151.357C10.4225 151.357 13.4286 148.351 13.4286 144.643C13.4286 140.935 10.4225 137.928 6.71429 137.928C3.00609 137.928 0 140.935 0 144.643C0 148.351 3.00609 151.357 6.71429 151.357Z" fill="#7913E5" fill-opacity="0.28"/>
    <path d="M40.2857 17.0714C43.9939 17.0714 47 14.0653 47 10.3571C47 6.64891 43.9939 3.64282 40.2857 3.64282C36.5775 3.64282 33.5714 6.64891 33.5714 10.3571C33.5714 14.0653 36.5775 17.0714 40.2857 17.0714Z" fill="#7913E5" fill-opacity="0.28"/>
    <path d="M40.2857 50.6429C43.9939 50.6429 47 47.6368 47 43.9286C47 40.2204 43.9939 37.2144 40.2857 37.2144C36.5775 37.2144 33.5714 40.2204 33.5714 43.9286C33.5714 47.6368 36.5775 50.6429 40.2857 50.6429Z" fill="#7913E5" fill-opacity="0.28"/>
    <path d="M40.2857 84.2142C43.9939 84.2142 47 81.2081 47 77.4999C47 73.7917 43.9939 70.7856 40.2857 70.7856C36.5775 70.7856 33.5714 73.7917 33.5714 77.4999C33.5714 81.2081 36.5775 84.2142 40.2857 84.2142Z" fill="#7913E5" fill-opacity="0.28"/>
    <path d="M40.2857 117.786C43.9939 117.786 47 114.78 47 111.071C47 107.363 43.9939 104.357 40.2857 104.357C36.5775 104.357 33.5714 107.363 33.5714 111.071C33.5714 114.78 36.5775 117.786 40.2857 117.786Z" fill="#7913E5" fill-opacity="0.28"/>
    <path d="M40.2857 151.357C43.9939 151.357 47 148.351 47 144.643C47 140.935 43.9939 137.928 40.2857 137.928C36.5775 137.928 33.5714 140.935 33.5714 144.643C33.5714 148.351 36.5775 151.357 40.2857 151.357Z" fill="#7913E5" fill-opacity="0.28"/>
</svg>