<svg xmlns="http://www.w3.org/2000/svg" width="24" height="23" viewBox="0 0 24 23" fill="none">
    <path d="M20.7656 0.1675H3.13812C1.78602 0.1675 0.734375 1.26922 0.734375 2.57125V20.1988C0.734375 21.5509 1.78602 22.6025 3.13812 22.6025H9.99883V14.9906H6.84391V11.385H9.99883V8.68078C9.99883 5.57594 11.8517 3.8232 14.6561 3.8232C16.0583 3.8232 17.4605 4.07359 17.4605 4.07359V7.12836H15.908C14.3556 7.12836 13.8548 8.07984 13.8548 9.08141V11.385H17.3102L16.7594 14.9906H13.8548V22.6025H20.7656C22.0677 22.6025 23.1694 21.5509 23.1694 20.1988V2.57125C23.1694 1.26922 22.0677 0.1675 20.7656 0.1675Z" fill="#0C1825"/>
</svg>