<svg xmlns="http://www.w3.org/2000/svg" width="131" height="37" viewBox="0 0 131 37" fill="none">
    <rect width="131" height="37" rx="16" fill="#9A969C"/>
    <path d="M15.626 22L12.748 13.6533H12.6865C12.7002 13.8402 12.7161 14.0954 12.7344 14.4189C12.7526 14.7425 12.7686 15.0889 12.7822 15.458C12.7959 15.8271 12.8027 16.1803 12.8027 16.5176V22H11.3125V12.0059H13.6162L16.3848 19.9834H16.4258L19.29 12.0059H21.5869V22H20.0215V16.4355C20.0215 16.1302 20.026 15.7998 20.0352 15.4443C20.0488 15.0889 20.0625 14.7516 20.0762 14.4326C20.0944 14.1136 20.1081 13.8584 20.1172 13.667H20.0625L17.0752 22H15.626ZM30.6514 14.4326V22H29.3867L29.168 20.9814H29.0791C28.9196 21.2412 28.7168 21.4577 28.4707 21.6309C28.2246 21.7995 27.9512 21.9248 27.6504 22.0068C27.3496 22.0934 27.0329 22.1367 26.7002 22.1367C26.1305 22.1367 25.6429 22.041 25.2373 21.8496C24.8363 21.6536 24.5286 21.3529 24.3145 20.9473C24.1003 20.5417 23.9932 20.0176 23.9932 19.375V14.4326H25.6064V19.0742C25.6064 19.6621 25.7249 20.1019 25.9619 20.3936C26.2035 20.6852 26.5771 20.8311 27.083 20.8311C27.5706 20.8311 27.958 20.7308 28.2451 20.5303C28.5322 20.3298 28.735 20.0335 28.8535 19.6416C28.9766 19.2497 29.0381 18.7689 29.0381 18.1992V14.4326H30.6514ZM34.5684 22H32.9551V11.3633H34.5684V22ZM39.6816 20.8379C39.8913 20.8379 40.0986 20.8197 40.3037 20.7832C40.5088 20.7422 40.6956 20.6943 40.8643 20.6396V21.8564C40.6865 21.9339 40.4564 22 40.1738 22.0547C39.8913 22.1094 39.5973 22.1367 39.292 22.1367C38.8636 22.1367 38.4785 22.0661 38.1367 21.9248C37.7949 21.779 37.5238 21.5306 37.3232 21.1797C37.1227 20.8288 37.0225 20.3434 37.0225 19.7236V15.6562H35.9902V14.9385L37.0977 14.3711L37.624 12.751H38.6357V14.4326H40.8027V15.6562H38.6357V19.7031C38.6357 20.0859 38.7314 20.3708 38.9229 20.5576C39.1143 20.7445 39.3672 20.8379 39.6816 20.8379ZM44.0088 14.4326V22H42.4023V14.4326H44.0088ZM43.2158 11.5342C43.4619 11.5342 43.6738 11.6003 43.8516 11.7324C44.0339 11.8646 44.125 12.0924 44.125 12.416C44.125 12.735 44.0339 12.9629 43.8516 13.0996C43.6738 13.2318 43.4619 13.2979 43.2158 13.2979C42.9606 13.2979 42.7441 13.2318 42.5664 13.0996C42.3932 12.9629 42.3066 12.735 42.3066 12.416C42.3066 12.0924 42.3932 11.8646 42.5664 11.7324C42.7441 11.6003 42.9606 11.5342 43.2158 11.5342ZM50.1953 14.2891C51.0931 14.2891 51.8132 14.6172 52.3555 15.2734C52.9023 15.9297 53.1758 16.9049 53.1758 18.1992C53.1758 19.056 53.0482 19.7783 52.793 20.3662C52.5423 20.9495 52.1891 21.3916 51.7334 21.6924C51.2822 21.9886 50.7559 22.1367 50.1543 22.1367C49.7715 22.1367 49.4388 22.0866 49.1562 21.9863C48.8737 21.8861 48.6322 21.7562 48.4316 21.5967C48.2311 21.4326 48.0625 21.2549 47.9258 21.0635H47.8301C47.8529 21.2458 47.8734 21.4486 47.8916 21.6719C47.9144 21.8906 47.9258 22.0911 47.9258 22.2734V25.3564H46.3125V14.4326H47.625L47.8506 15.4785H47.9258C48.0671 15.2643 48.238 15.0661 48.4385 14.8838C48.6436 14.7015 48.8896 14.5579 49.1768 14.4531C49.4684 14.3438 49.8079 14.2891 50.1953 14.2891ZM49.7646 15.6016C49.3226 15.6016 48.9671 15.6904 48.6982 15.8682C48.4339 16.0413 48.2402 16.3034 48.1172 16.6543C47.9987 17.0052 47.9349 17.445 47.9258 17.9736V18.1992C47.9258 18.7598 47.9827 19.236 48.0967 19.6279C48.2152 20.0153 48.4089 20.3115 48.6777 20.5166C48.9512 20.7171 49.3203 20.8174 49.7852 20.8174C50.1771 20.8174 50.5007 20.7103 50.7559 20.4961C51.0156 20.2819 51.2093 19.9766 51.3369 19.5801C51.4645 19.1836 51.5283 18.7165 51.5283 18.1787C51.5283 17.363 51.3825 16.7295 51.0908 16.2783C50.8037 15.8271 50.3617 15.6016 49.7646 15.6016ZM56.6484 22H55.0352V11.3633H56.6484V22ZM61.96 14.2891C62.6344 14.2891 63.2132 14.4281 63.6963 14.7061C64.1794 14.984 64.5508 15.3783 64.8105 15.8887C65.0703 16.3991 65.2002 17.0098 65.2002 17.7207V18.582H60.1484C60.1667 19.3158 60.3626 19.8809 60.7363 20.2773C61.1146 20.6738 61.6432 20.8721 62.3223 20.8721C62.8053 20.8721 63.2383 20.8265 63.6211 20.7354C64.0085 20.6396 64.4072 20.5007 64.8174 20.3184V21.624C64.4391 21.8018 64.054 21.9316 63.6621 22.0137C63.2702 22.0957 62.8008 22.1367 62.2539 22.1367C61.5111 22.1367 60.8571 21.9932 60.292 21.7061C59.7314 21.4144 59.2917 20.9814 58.9727 20.4072C58.6582 19.833 58.501 19.1198 58.501 18.2676C58.501 17.4199 58.6445 16.6999 58.9316 16.1074C59.2188 15.515 59.6221 15.0638 60.1416 14.7539C60.6611 14.444 61.2673 14.2891 61.96 14.2891ZM61.96 15.499C61.4541 15.499 61.0439 15.6631 60.7295 15.9912C60.4196 16.3193 60.2373 16.8001 60.1826 17.4336H63.6279C63.6234 17.0553 63.5596 16.7204 63.4365 16.4287C63.318 16.137 63.1357 15.9092 62.8896 15.7451C62.6481 15.5811 62.3382 15.499 61.96 15.499ZM73.4648 20.8379C73.6745 20.8379 73.8818 20.8197 74.0869 20.7832C74.292 20.7422 74.4788 20.6943 74.6475 20.6396V21.8564C74.4697 21.9339 74.2396 22 73.957 22.0547C73.6745 22.1094 73.3805 22.1367 73.0752 22.1367C72.6468 22.1367 72.2617 22.0661 71.9199 21.9248C71.5781 21.779 71.307 21.5306 71.1064 21.1797C70.9059 20.8288 70.8057 20.3434 70.8057 19.7236V15.6562H69.7734V14.9385L70.8809 14.3711L71.4072 12.751H72.4189V14.4326H74.5859V15.6562H72.4189V19.7031C72.4189 20.0859 72.5146 20.3708 72.7061 20.5576C72.8975 20.7445 73.1504 20.8379 73.4648 20.8379ZM80.0205 14.2891C80.1481 14.2891 80.2871 14.2959 80.4375 14.3096C80.5879 14.3232 80.7178 14.3415 80.8271 14.3643L80.6768 15.8682C80.5811 15.8408 80.4626 15.8203 80.3213 15.8066C80.1846 15.793 80.0615 15.7861 79.9521 15.7861C79.665 15.7861 79.3916 15.834 79.1318 15.9297C78.8721 16.0208 78.6419 16.1621 78.4414 16.3535C78.2409 16.5404 78.0837 16.7751 77.9697 17.0576C77.8558 17.3402 77.7988 17.6683 77.7988 18.042V22H76.1855V14.4326H77.4434L77.6621 15.7656H77.7373C77.8877 15.4967 78.0745 15.2507 78.2979 15.0273C78.5212 14.804 78.7764 14.6263 79.0635 14.4941C79.3551 14.3574 79.6742 14.2891 80.0205 14.2891ZM83.835 14.4326V22H82.2285V14.4326H83.835ZM83.042 11.5342C83.2881 11.5342 83.5 11.6003 83.6777 11.7324C83.86 11.8646 83.9512 12.0924 83.9512 12.416C83.9512 12.735 83.86 12.9629 83.6777 13.0996C83.5 13.2318 83.2881 13.2979 83.042 13.2979C82.7868 13.2979 82.5703 13.2318 82.3926 13.0996C82.2194 12.9629 82.1328 12.735 82.1328 12.416C82.1328 12.0924 82.2194 11.8646 82.3926 11.7324C82.5703 11.6003 82.7868 11.5342 83.042 11.5342ZM90.0215 14.2891C90.9193 14.2891 91.6393 14.6172 92.1816 15.2734C92.7285 15.9297 93.002 16.9049 93.002 18.1992C93.002 19.056 92.8743 19.7783 92.6191 20.3662C92.3685 20.9495 92.0153 21.3916 91.5596 21.6924C91.1084 21.9886 90.582 22.1367 89.9805 22.1367C89.5977 22.1367 89.265 22.0866 88.9824 21.9863C88.6999 21.8861 88.4583 21.7562 88.2578 21.5967C88.0573 21.4326 87.8887 21.2549 87.752 21.0635H87.6562C87.679 21.2458 87.6995 21.4486 87.7178 21.6719C87.7406 21.8906 87.752 22.0911 87.752 22.2734V25.3564H86.1387V14.4326H87.4512L87.6768 15.4785H87.752C87.8932 15.2643 88.0641 15.0661 88.2646 14.8838C88.4697 14.7015 88.7158 14.5579 89.0029 14.4531C89.2946 14.3438 89.6341 14.2891 90.0215 14.2891ZM89.5908 15.6016C89.1488 15.6016 88.7933 15.6904 88.5244 15.8682C88.2601 16.0413 88.0664 16.3034 87.9434 16.6543C87.8249 17.0052 87.7611 17.445 87.752 17.9736V18.1992C87.752 18.7598 87.8089 19.236 87.9229 19.6279C88.0413 20.0153 88.235 20.3115 88.5039 20.5166C88.7773 20.7171 89.1465 20.8174 89.6113 20.8174C90.0033 20.8174 90.3268 20.7103 90.582 20.4961C90.8418 20.2819 91.0355 19.9766 91.1631 19.5801C91.2907 19.1836 91.3545 18.7165 91.3545 18.1787C91.3545 17.363 91.2087 16.7295 90.917 16.2783C90.6299 15.8271 90.1878 15.6016 89.5908 15.6016Z" fill="white"/>
    <circle cx="116" cy="19" r="10" fill="#BFBFBF"/>
    <path d="M114.813 22.248C114.589 22.248 114.365 22.163 114.194 21.992L111.821 19.619C111.479 19.277 111.479 18.723 111.821 18.382C112.163 18.04 112.716 18.039 113.058 18.381L114.813 20.136L118.941 16.008C119.283 15.666 119.836 15.666 120.178 16.008C120.52 16.35 120.52 16.904 120.178 17.246L115.432 21.992C115.261 22.163 115.037 22.248 114.813 22.248Z" fill="white"/>
</svg>