<svg xmlns="http://www.w3.org/2000/svg" width="19" height="25" viewBox="0 0 19 25" fill="none">
    <path d="M18.807 24.6666H16.4737V22.3333C16.4737 21.405 16.105 20.5148 15.4486 19.8584C14.7922 19.202 13.902 18.8333 12.9737 18.8333H5.97371C5.04546 18.8333 4.15522 19.202 3.49884 19.8584C2.84246 20.5148 2.47371 21.405 2.47371 22.3333V24.6666H0.140381V22.3333C0.140381 20.7862 0.754962 19.3025 1.84892 18.2085C2.94289 17.1145 4.42662 16.5 5.97371 16.5H12.9737C14.5208 16.5 16.0045 17.1145 17.0985 18.2085C18.1925 19.3025 18.807 20.7862 18.807 22.3333V24.6666ZM9.47371 14.1666C8.55446 14.1666 7.64421 13.9856 6.79493 13.6338C5.94565 13.282 5.17398 12.7664 4.52397 12.1164C3.87396 11.4664 3.35834 10.6947 3.00656 9.84541C2.65477 8.99613 2.47371 8.08588 2.47371 7.16663C2.47371 6.24737 2.65477 5.33712 3.00656 4.48784C3.35834 3.63856 3.87396 2.86689 4.52397 2.21688C5.17398 1.56687 5.94565 1.05125 6.79493 0.699469C7.64421 0.347686 8.55446 0.166626 9.47371 0.166626C11.3302 0.166626 13.1107 0.904124 14.4235 2.21688C15.7362 3.52963 16.4737 5.31011 16.4737 7.16663C16.4737 9.02314 15.7362 10.8036 14.4235 12.1164C13.1107 13.4291 11.3302 14.1666 9.47371 14.1666ZM9.47371 11.8333C10.7114 11.8333 11.8984 11.3416 12.7735 10.4665C13.6487 9.59129 14.1404 8.4043 14.1404 7.16663C14.1404 5.92895 13.6487 4.74196 12.7735 3.86679C11.8984 2.99162 10.7114 2.49996 9.47371 2.49996C8.23604 2.49996 7.04905 2.99162 6.17388 3.86679C5.29871 4.74196 4.80705 5.92895 4.80705 7.16663C4.80705 8.4043 5.29871 9.59129 6.17388 10.4665C7.04905 11.3416 8.23604 11.8333 9.47371 11.8333Z" fill="#3E4958"/>
</svg>