<svg xmlns="http://www.w3.org/2000/svg" width="131" height="37" viewBox="0 0 131 37" fill="none">
    <rect width="131" height="37" rx="16" fill="#9A969C"/>
    <path d="M14.1221 12.0059C14.9834 12.0059 15.6943 12.1107 16.2549 12.3203C16.82 12.5299 17.2393 12.849 17.5127 13.2773C17.7907 13.7057 17.9297 14.2503 17.9297 14.9111C17.9297 15.4033 17.8385 15.8226 17.6562 16.1689C17.474 16.5153 17.2347 16.8024 16.9385 17.0303C16.6423 17.2581 16.3255 17.4404 15.9883 17.5771L18.8252 22H16.9727L14.5596 17.9941H12.9531V22H11.3125V12.0059H14.1221ZM14.0127 13.373H12.9531V16.6406H14.0879C14.849 16.6406 15.4004 16.4993 15.7422 16.2168C16.0885 15.9342 16.2617 15.5173 16.2617 14.9658C16.2617 14.387 16.0771 13.9769 15.708 13.7354C15.3434 13.4938 14.7783 13.373 14.0127 13.373ZM23.1045 14.2891C23.779 14.2891 24.3577 14.4281 24.8408 14.7061C25.3239 14.984 25.6953 15.3783 25.9551 15.8887C26.2148 16.3991 26.3447 17.0098 26.3447 17.7207V18.582H21.293C21.3112 19.3158 21.5072 19.8809 21.8809 20.2773C22.2591 20.6738 22.7878 20.8721 23.4668 20.8721C23.9499 20.8721 24.3828 20.8265 24.7656 20.7354C25.153 20.6396 25.5518 20.5007 25.9619 20.3184V21.624C25.5837 21.8018 25.1986 21.9316 24.8066 22.0137C24.4147 22.0957 23.9453 22.1367 23.3984 22.1367C22.6556 22.1367 22.0016 21.9932 21.4365 21.7061C20.876 21.4144 20.4362 20.9814 20.1172 20.4072C19.8027 19.833 19.6455 19.1198 19.6455 18.2676C19.6455 17.4199 19.7891 16.6999 20.0762 16.1074C20.3633 15.515 20.7666 15.0638 21.2861 14.7539C21.8057 14.444 22.4118 14.2891 23.1045 14.2891ZM23.1045 15.499C22.5986 15.499 22.1885 15.6631 21.874 15.9912C21.5641 16.3193 21.3818 16.8001 21.3271 17.4336H24.7725C24.7679 17.0553 24.7041 16.7204 24.5811 16.4287C24.4626 16.137 24.2803 15.9092 24.0342 15.7451C23.7926 15.5811 23.4827 15.499 23.1045 15.499ZM30.9727 20.8379C31.1823 20.8379 31.3896 20.8197 31.5947 20.7832C31.7998 20.7422 31.9867 20.6943 32.1553 20.6396V21.8564C31.9775 21.9339 31.7474 22 31.4648 22.0547C31.1823 22.1094 30.8883 22.1367 30.583 22.1367C30.1546 22.1367 29.7695 22.0661 29.4277 21.9248C29.0859 21.779 28.8148 21.5306 28.6143 21.1797C28.4137 20.8288 28.3135 20.3434 28.3135 19.7236V15.6562H27.2812V14.9385L28.3887 14.3711L28.915 12.751H29.9268V14.4326H32.0938V15.6562H29.9268V19.7031C29.9268 20.0859 30.0225 20.3708 30.2139 20.5576C30.4053 20.7445 30.6582 20.8379 30.9727 20.8379ZM40.29 14.4326V22H39.0254L38.8066 20.9814H38.7178C38.5583 21.2412 38.3555 21.4577 38.1094 21.6309C37.8633 21.7995 37.5898 21.9248 37.2891 22.0068C36.9883 22.0934 36.6715 22.1367 36.3389 22.1367C35.7692 22.1367 35.2816 22.041 34.876 21.8496C34.4749 21.6536 34.1673 21.3529 33.9531 20.9473C33.7389 20.5417 33.6318 20.0176 33.6318 19.375V14.4326H35.2451V19.0742C35.2451 19.6621 35.3636 20.1019 35.6006 20.3936C35.8421 20.6852 36.2158 20.8311 36.7217 20.8311C37.2093 20.8311 37.5967 20.7308 37.8838 20.5303C38.1709 20.3298 38.3737 20.0335 38.4922 19.6416C38.6152 19.2497 38.6768 18.7689 38.6768 18.1992V14.4326H40.29ZM46.4287 14.2891C46.5563 14.2891 46.6953 14.2959 46.8457 14.3096C46.9961 14.3232 47.126 14.3415 47.2354 14.3643L47.085 15.8682C46.9893 15.8408 46.8708 15.8203 46.7295 15.8066C46.5928 15.793 46.4697 15.7861 46.3604 15.7861C46.0732 15.7861 45.7998 15.834 45.54 15.9297C45.2803 16.0208 45.0501 16.1621 44.8496 16.3535C44.6491 16.5404 44.4919 16.7751 44.3779 17.0576C44.264 17.3402 44.207 17.6683 44.207 18.042V22H42.5938V14.4326H43.8516L44.0703 15.7656H44.1455C44.2959 15.4967 44.4827 15.2507 44.7061 15.0273C44.9294 14.804 45.1846 14.6263 45.4717 14.4941C45.7633 14.3574 46.0824 14.2891 46.4287 14.2891ZM52.5811 14.2891C53.4333 14.2891 54.0964 14.5101 54.5703 14.9521C55.0488 15.3896 55.2881 16.0938 55.2881 17.0645V22H53.6816V17.3652C53.6816 16.7773 53.5609 16.3376 53.3193 16.0459C53.0778 15.7497 52.7041 15.6016 52.1982 15.6016C51.4645 15.6016 50.9541 15.8271 50.667 16.2783C50.3844 16.7295 50.2432 17.3835 50.2432 18.2402V22H48.6367V14.4326H49.8877L50.1133 15.458H50.2021C50.3662 15.1937 50.569 14.9772 50.8105 14.8086C51.0566 14.6354 51.3301 14.5055 51.6309 14.4189C51.9362 14.3324 52.2529 14.2891 52.5811 14.2891ZM63.9902 20.8379C64.1999 20.8379 64.4072 20.8197 64.6123 20.7832C64.8174 20.7422 65.0042 20.6943 65.1729 20.6396V21.8564C64.9951 21.9339 64.765 22 64.4824 22.0547C64.1999 22.1094 63.9059 22.1367 63.6006 22.1367C63.1722 22.1367 62.7871 22.0661 62.4453 21.9248C62.1035 21.779 61.8324 21.5306 61.6318 21.1797C61.4313 20.8288 61.3311 20.3434 61.3311 19.7236V15.6562H60.2988V14.9385L61.4062 14.3711L61.9326 12.751H62.9443V14.4326H65.1113V15.6562H62.9443V19.7031C62.9443 20.0859 63.04 20.3708 63.2314 20.5576C63.4229 20.7445 63.6758 20.8379 63.9902 20.8379ZM70.5459 14.2891C70.6735 14.2891 70.8125 14.2959 70.9629 14.3096C71.1133 14.3232 71.2432 14.3415 71.3525 14.3643L71.2021 15.8682C71.1064 15.8408 70.988 15.8203 70.8467 15.8066C70.71 15.793 70.5869 15.7861 70.4775 15.7861C70.1904 15.7861 69.917 15.834 69.6572 15.9297C69.3975 16.0208 69.1673 16.1621 68.9668 16.3535C68.7663 16.5404 68.609 16.7751 68.4951 17.0576C68.3812 17.3402 68.3242 17.6683 68.3242 18.042V22H66.7109V14.4326H67.9688L68.1875 15.7656H68.2627C68.4131 15.4967 68.5999 15.2507 68.8232 15.0273C69.0465 14.804 69.3018 14.6263 69.5889 14.4941C69.8805 14.3574 70.1995 14.2891 70.5459 14.2891ZM74.3604 14.4326V22H72.7539V14.4326H74.3604ZM73.5674 11.5342C73.8135 11.5342 74.0254 11.6003 74.2031 11.7324C74.3854 11.8646 74.4766 12.0924 74.4766 12.416C74.4766 12.735 74.3854 12.9629 74.2031 13.0996C74.0254 13.2318 73.8135 13.2979 73.5674 13.2979C73.3122 13.2979 73.0957 13.2318 72.918 13.0996C72.7448 12.9629 72.6582 12.735 72.6582 12.416C72.6582 12.0924 72.7448 11.8646 72.918 11.7324C73.0957 11.6003 73.3122 11.5342 73.5674 11.5342ZM80.5469 14.2891C81.4447 14.2891 82.1647 14.6172 82.707 15.2734C83.2539 15.9297 83.5273 16.9049 83.5273 18.1992C83.5273 19.056 83.3997 19.7783 83.1445 20.3662C82.8939 20.9495 82.5407 21.3916 82.085 21.6924C81.6338 21.9886 81.1074 22.1367 80.5059 22.1367C80.123 22.1367 79.7904 22.0866 79.5078 21.9863C79.2253 21.8861 78.9837 21.7562 78.7832 21.5967C78.5827 21.4326 78.4141 21.2549 78.2773 21.0635H78.1816C78.2044 21.2458 78.2249 21.4486 78.2432 21.6719C78.266 21.8906 78.2773 22.0911 78.2773 22.2734V25.3564H76.6641V14.4326H77.9766L78.2021 15.4785H78.2773C78.4186 15.2643 78.5895 15.0661 78.79 14.8838C78.9951 14.7015 79.2412 14.5579 79.5283 14.4531C79.82 14.3438 80.1595 14.2891 80.5469 14.2891ZM80.1162 15.6016C79.6742 15.6016 79.3187 15.6904 79.0498 15.8682C78.7855 16.0413 78.5918 16.3034 78.4688 16.6543C78.3503 17.0052 78.2865 17.445 78.2773 17.9736V18.1992C78.2773 18.7598 78.3343 19.236 78.4482 19.6279C78.5667 20.0153 78.7604 20.3115 79.0293 20.5166C79.3027 20.7171 79.6719 20.8174 80.1367 20.8174C80.5286 20.8174 80.8522 20.7103 81.1074 20.4961C81.3672 20.2819 81.5609 19.9766 81.6885 19.5801C81.8161 19.1836 81.8799 18.7165 81.8799 18.1787C81.8799 17.363 81.734 16.7295 81.4424 16.2783C81.1553 15.8271 80.7132 15.6016 80.1162 15.6016Z" fill="white"/>
    <circle cx="107" cy="19" r="10" fill="#BFBFBF"/>
    <path d="M105.813 22.248C105.589 22.248 105.365 22.163 105.194 21.992L102.821 19.619C102.479 19.277 102.479 18.723 102.821 18.382C103.163 18.04 103.716 18.039 104.058 18.381L105.813 20.136L109.941 16.008C110.283 15.666 110.836 15.666 111.178 16.008C111.52 16.35 111.52 16.904 111.178 17.246L106.432 21.992C106.261 22.163 106.037 22.248 105.813 22.248Z" fill="white"/>
</svg>