<svg xmlns="http://www.w3.org/2000/svg" width="1374" height="366" viewBox="0 0 1374 366" fill="none">
    <g filter="url(#filter0_d_1_6290)">
        <rect x="17" y="0.6875" width="1340" height="289.188" rx="12" fill="#61297F"/>
        <path d="M164.852 110.481C164.741 109.364 164.266 108.496 163.425 107.877C162.585 107.259 161.445 106.95 160.005 106.95C159.026 106.95 158.2 107.088 157.526 107.365C156.852 107.633 156.335 108.007 155.974 108.487C155.624 108.967 155.448 109.512 155.448 110.121C155.43 110.629 155.536 111.072 155.767 111.451C156.007 111.829 156.335 112.157 156.75 112.434C157.165 112.702 157.646 112.937 158.19 113.14C158.735 113.334 159.317 113.5 159.935 113.639L162.484 114.248C163.721 114.525 164.857 114.895 165.891 115.356C166.925 115.818 167.82 116.386 168.577 117.06C169.335 117.734 169.921 118.528 170.336 119.442C170.761 120.356 170.978 121.404 170.987 122.586C170.978 124.321 170.535 125.826 169.658 127.1C168.79 128.365 167.534 129.349 165.891 130.05C164.256 130.743 162.285 131.089 159.977 131.089C157.687 131.089 155.693 130.738 153.994 130.037C152.304 129.335 150.984 128.296 150.033 126.92C149.091 125.536 148.597 123.823 148.551 121.782H154.354C154.419 122.733 154.691 123.527 155.171 124.164C155.661 124.792 156.311 125.268 157.124 125.591C157.946 125.905 158.874 126.062 159.908 126.062C160.923 126.062 161.805 125.914 162.553 125.619C163.31 125.323 163.896 124.912 164.312 124.386C164.727 123.86 164.935 123.255 164.935 122.572C164.935 121.935 164.746 121.399 164.367 120.965C163.998 120.531 163.453 120.162 162.733 119.857C162.022 119.553 161.15 119.276 160.115 119.026L157.027 118.251C154.636 117.669 152.748 116.76 151.363 115.522C149.978 114.285 149.29 112.619 149.299 110.523C149.29 108.805 149.747 107.305 150.67 106.022C151.603 104.738 152.881 103.737 154.506 103.016C156.131 102.296 157.978 101.936 160.046 101.936C162.151 101.936 163.989 102.296 165.558 103.016C167.137 103.737 168.365 104.738 169.242 106.022C170.119 107.305 170.572 108.792 170.599 110.481H164.852ZM173.91 130.688V109.415H179.81V130.688H173.91ZM176.874 106.673C175.997 106.673 175.244 106.382 174.616 105.8C173.998 105.209 173.688 104.503 173.688 103.681C173.688 102.869 173.998 102.172 174.616 101.59C175.244 100.999 175.997 100.703 176.874 100.703C177.751 100.703 178.499 100.999 179.117 101.59C179.745 102.172 180.059 102.869 180.059 103.681C180.059 104.503 179.745 105.209 179.117 105.8C178.499 106.382 177.751 106.673 176.874 106.673ZM193.12 139.108C191.209 139.108 189.57 138.845 188.203 138.319C186.846 137.801 185.766 137.095 184.963 136.2C184.159 135.304 183.638 134.298 183.398 133.18L188.854 132.446C189.02 132.871 189.284 133.268 189.644 133.637C190.004 134.007 190.479 134.302 191.07 134.524C191.67 134.755 192.4 134.87 193.258 134.87C194.542 134.87 195.599 134.556 196.43 133.928C197.27 133.31 197.69 132.271 197.69 130.812V126.92H197.441C197.182 127.511 196.795 128.07 196.278 128.596C195.76 129.123 195.096 129.552 194.283 129.884C193.471 130.217 192.501 130.383 191.375 130.383C189.778 130.383 188.323 130.013 187.012 129.275C185.71 128.527 184.672 127.387 183.896 125.854C183.13 124.312 182.747 122.364 182.747 120.01C182.747 117.6 183.139 115.587 183.924 113.971C184.709 112.355 185.752 111.146 187.054 110.343C188.365 109.539 189.801 109.138 191.361 109.138C192.552 109.138 193.549 109.341 194.352 109.747C195.156 110.144 195.802 110.643 196.291 111.243C196.79 111.834 197.173 112.415 197.441 112.988H197.662V109.415H203.521V130.895C203.521 132.705 203.078 134.219 202.191 135.438C201.305 136.657 200.077 137.571 198.507 138.18C196.947 138.799 195.151 139.108 193.12 139.108ZM193.244 125.951C194.195 125.951 194.999 125.716 195.654 125.245C196.319 124.765 196.827 124.081 197.178 123.195C197.538 122.299 197.718 121.228 197.718 119.982C197.718 118.735 197.542 117.655 197.192 116.741C196.841 115.818 196.333 115.102 195.668 114.594C195.003 114.087 194.195 113.833 193.244 113.833C192.275 113.833 191.458 114.096 190.793 114.622C190.128 115.139 189.625 115.859 189.284 116.783C188.942 117.706 188.771 118.772 188.771 119.982C188.771 121.21 188.942 122.272 189.284 123.167C189.634 124.054 190.138 124.741 190.793 125.231C191.458 125.711 192.275 125.951 193.244 125.951ZM213.116 118.389V130.688H207.216V109.415H212.839V113.168H213.088C213.559 111.931 214.348 110.952 215.456 110.232C216.564 109.502 217.907 109.138 219.486 109.138C220.964 109.138 222.252 109.461 223.35 110.107C224.449 110.754 225.303 111.677 225.912 112.877C226.522 114.068 226.827 115.49 226.827 117.143V130.688H220.927V118.195C220.936 116.893 220.604 115.878 219.93 115.148C219.256 114.41 218.328 114.04 217.146 114.04C216.352 114.04 215.65 114.211 215.041 114.553C214.441 114.895 213.97 115.393 213.628 116.049C213.296 116.695 213.125 117.475 213.116 118.389ZM252.145 121.63V109.415H258.044V130.688H252.38V126.824H252.158C251.678 128.07 250.88 129.072 249.762 129.829C248.654 130.586 247.302 130.964 245.705 130.964C244.283 130.964 243.032 130.641 241.951 129.995C240.871 129.349 240.026 128.43 239.417 127.239C238.817 126.048 238.512 124.621 238.503 122.96V109.415H244.403V121.907C244.412 123.163 244.749 124.155 245.414 124.885C246.078 125.614 246.969 125.979 248.087 125.979C248.798 125.979 249.462 125.817 250.081 125.494C250.7 125.162 251.198 124.672 251.577 124.026C251.964 123.38 252.154 122.581 252.145 121.63ZM261.764 138.665V109.415H267.58V112.988H267.843C268.102 112.415 268.476 111.834 268.965 111.243C269.464 110.643 270.11 110.144 270.904 109.747C271.707 109.341 272.705 109.138 273.896 109.138C275.447 109.138 276.878 109.544 278.189 110.357C279.5 111.16 280.548 112.374 281.333 113.999C282.118 115.615 282.51 117.641 282.51 120.079C282.51 122.452 282.127 124.455 281.361 126.089C280.603 127.714 279.569 128.947 278.258 129.787C276.956 130.618 275.498 131.034 273.882 131.034C272.737 131.034 271.763 130.844 270.96 130.466C270.166 130.087 269.515 129.612 269.007 129.039C268.499 128.458 268.111 127.871 267.843 127.281H267.663V138.665H261.764ZM267.539 120.051C267.539 121.316 267.714 122.419 268.065 123.361C268.416 124.303 268.924 125.037 269.589 125.563C270.253 126.08 271.061 126.339 272.012 126.339C272.972 126.339 273.785 126.076 274.45 125.549C275.114 125.014 275.618 124.275 275.959 123.333C276.31 122.382 276.486 121.288 276.486 120.051C276.486 118.823 276.315 117.743 275.973 116.81C275.631 115.878 275.128 115.148 274.464 114.622C273.799 114.096 272.982 113.833 272.012 113.833C271.052 113.833 270.239 114.087 269.575 114.594C268.919 115.102 268.416 115.822 268.065 116.755C267.714 117.687 267.539 118.786 267.539 120.051ZM304.909 109.415V113.847H291.78V109.415H304.909ZM294.785 130.688V107.877C294.785 106.336 295.085 105.057 295.686 104.041C296.295 103.026 297.126 102.264 298.178 101.756C299.231 101.248 300.427 100.994 301.765 100.994C302.67 100.994 303.497 101.064 304.244 101.202C305.002 101.341 305.565 101.465 305.934 101.576L304.882 106.008C304.651 105.934 304.365 105.865 304.023 105.8C303.691 105.735 303.349 105.703 302.998 105.703C302.13 105.703 301.525 105.906 301.184 106.312C300.842 106.71 300.671 107.268 300.671 107.988V130.688H294.785ZM316.363 131.103C314.212 131.103 312.352 130.646 310.782 129.732C309.222 128.809 308.017 127.525 307.167 125.882C306.318 124.229 305.893 122.313 305.893 120.134C305.893 117.937 306.318 116.016 307.167 114.373C308.017 112.72 309.222 111.437 310.782 110.523C312.352 109.599 314.212 109.138 316.363 109.138C318.515 109.138 320.37 109.599 321.931 110.523C323.5 111.437 324.71 112.72 325.559 114.373C326.409 116.016 326.834 117.937 326.834 120.134C326.834 122.313 326.409 124.229 325.559 125.882C324.71 127.525 323.5 128.809 321.931 129.732C320.37 130.646 318.515 131.103 316.363 131.103ZM316.391 126.533C317.37 126.533 318.187 126.256 318.842 125.702C319.498 125.138 319.992 124.372 320.324 123.403C320.666 122.433 320.837 121.33 320.837 120.093C320.837 118.855 320.666 117.752 320.324 116.783C319.992 115.813 319.498 115.047 318.842 114.484C318.187 113.92 317.37 113.639 316.391 113.639C315.403 113.639 314.572 113.92 313.898 114.484C313.233 115.047 312.73 115.813 312.389 116.783C312.056 117.752 311.89 118.855 311.89 120.093C311.89 121.33 312.056 122.433 312.389 123.403C312.73 124.372 313.233 125.138 313.898 125.702C314.572 126.256 315.403 126.533 316.391 126.533ZM329.67 130.688V109.415H335.39V113.126H335.611C335.999 111.806 336.65 110.809 337.564 110.135C338.478 109.452 339.531 109.11 340.722 109.11C341.017 109.11 341.336 109.129 341.677 109.165C342.019 109.202 342.319 109.253 342.578 109.318V114.553C342.301 114.47 341.917 114.396 341.428 114.331C340.939 114.267 340.491 114.234 340.085 114.234C339.217 114.234 338.441 114.424 337.758 114.802C337.084 115.172 336.548 115.689 336.151 116.353C335.764 117.018 335.57 117.784 335.57 118.652V130.688H329.67ZM364.094 109.415V113.847H350.965V109.415H364.094ZM353.97 130.688V107.877C353.97 106.336 354.27 105.057 354.87 104.041C355.479 103.026 356.31 102.264 357.363 101.756C358.416 101.248 359.611 100.994 360.95 100.994C361.855 100.994 362.681 101.064 363.429 101.202C364.186 101.341 364.749 101.465 365.119 101.576L364.066 106.008C363.835 105.934 363.549 105.865 363.207 105.8C362.875 105.735 362.533 105.703 362.183 105.703C361.315 105.703 360.71 105.906 360.368 106.312C360.027 106.71 359.856 107.268 359.856 107.988V130.688H353.97ZM366.698 130.688V109.415H372.418V113.126H372.64C373.027 111.806 373.678 110.809 374.592 110.135C375.506 109.452 376.559 109.11 377.75 109.11C378.045 109.11 378.364 109.129 378.706 109.165C379.047 109.202 379.347 109.253 379.606 109.318V114.553C379.329 114.47 378.946 114.396 378.456 114.331C377.967 114.267 377.519 114.234 377.113 114.234C376.245 114.234 375.469 114.424 374.786 114.802C374.112 115.172 373.577 115.689 373.18 116.353C372.792 117.018 372.598 117.784 372.598 118.652V130.688H366.698ZM390.361 131.103C388.172 131.103 386.289 130.66 384.71 129.773C383.14 128.878 381.931 127.613 381.081 125.979C380.232 124.335 379.807 122.392 379.807 120.148C379.807 117.96 380.232 116.039 381.081 114.387C381.931 112.734 383.127 111.446 384.668 110.523C386.22 109.599 388.038 109.138 390.125 109.138C391.528 109.138 392.835 109.364 394.044 109.816C395.263 110.26 396.325 110.929 397.23 111.825C398.144 112.72 398.855 113.847 399.363 115.204C399.87 116.552 400.124 118.131 400.124 119.94V121.561H382.162V117.904H394.571C394.571 117.055 394.386 116.303 394.017 115.647C393.647 114.991 393.135 114.479 392.479 114.11C391.833 113.731 391.081 113.542 390.222 113.542C389.326 113.542 388.532 113.75 387.84 114.165C387.157 114.571 386.621 115.121 386.233 115.813C385.846 116.496 385.647 117.258 385.638 118.098V121.575C385.638 122.627 385.832 123.537 386.22 124.303C386.617 125.069 387.175 125.66 387.895 126.076C388.616 126.491 389.47 126.699 390.457 126.699C391.113 126.699 391.713 126.607 392.258 126.422C392.803 126.237 393.269 125.96 393.657 125.591C394.044 125.222 394.34 124.769 394.543 124.234L400 124.594C399.723 125.905 399.155 127.05 398.296 128.028C397.447 128.998 396.348 129.755 395 130.3C393.661 130.835 392.115 131.103 390.361 131.103ZM412.669 131.103C410.481 131.103 408.597 130.66 407.019 129.773C405.449 128.878 404.239 127.613 403.39 125.979C402.541 124.335 402.116 122.392 402.116 120.148C402.116 117.96 402.541 116.039 403.39 114.387C404.239 112.734 405.435 111.446 406.977 110.523C408.528 109.599 410.347 109.138 412.434 109.138C413.837 109.138 415.144 109.364 416.353 109.816C417.572 110.26 418.634 110.929 419.538 111.825C420.453 112.72 421.163 113.847 421.671 115.204C422.179 116.552 422.433 118.131 422.433 119.94V121.561H404.47V117.904H416.879C416.879 117.055 416.695 116.303 416.325 115.647C415.956 114.991 415.444 114.479 414.788 114.11C414.142 113.731 413.389 113.542 412.531 113.542C411.635 113.542 410.841 113.75 410.149 114.165C409.465 114.571 408.93 115.121 408.542 115.813C408.154 116.496 407.956 117.258 407.946 118.098V121.575C407.946 122.627 408.14 123.537 408.528 124.303C408.925 125.069 409.484 125.66 410.204 126.076C410.924 126.491 411.778 126.699 412.766 126.699C413.422 126.699 414.022 126.607 414.566 126.422C415.111 126.237 415.578 125.96 415.965 125.591C416.353 125.222 416.649 124.769 416.852 124.234L422.308 124.594C422.031 125.905 421.464 127.05 420.605 128.028C419.755 128.998 418.657 129.755 417.309 130.3C415.97 130.835 414.423 131.103 412.669 131.103ZM428.732 131.048C427.818 131.048 427.033 130.724 426.377 130.078C425.731 129.423 425.408 128.638 425.408 127.724C425.408 126.819 425.731 126.043 426.377 125.397C427.033 124.751 427.818 124.428 428.732 124.428C429.618 124.428 430.394 124.751 431.058 125.397C431.723 126.043 432.055 126.819 432.055 127.724C432.055 128.333 431.899 128.892 431.585 129.4C431.28 129.898 430.878 130.3 430.38 130.604C429.881 130.9 429.332 131.048 428.732 131.048ZM164.852 165.481C164.741 164.364 164.266 163.496 163.425 162.877C162.585 162.259 161.445 161.95 160.005 161.95C159.026 161.95 158.2 162.088 157.526 162.365C156.852 162.633 156.335 163.007 155.974 163.487C155.624 163.967 155.448 164.512 155.448 165.121C155.43 165.629 155.536 166.072 155.767 166.451C156.007 166.829 156.335 167.157 156.75 167.434C157.165 167.702 157.646 167.937 158.19 168.14C158.735 168.334 159.317 168.5 159.935 168.639L162.484 169.248C163.721 169.525 164.857 169.895 165.891 170.356C166.925 170.818 167.82 171.386 168.577 172.06C169.335 172.734 169.921 173.528 170.336 174.442C170.761 175.356 170.978 176.404 170.987 177.586C170.978 179.321 170.535 180.826 169.658 182.1C168.79 183.365 167.534 184.349 165.891 185.05C164.256 185.743 162.285 186.089 159.977 186.089C157.687 186.089 155.693 185.738 153.994 185.037C152.304 184.335 150.984 183.296 150.033 181.92C149.091 180.536 148.597 178.823 148.551 176.782H154.354C154.419 177.733 154.691 178.527 155.171 179.164C155.661 179.792 156.311 180.268 157.124 180.591C157.946 180.905 158.874 181.062 159.908 181.062C160.923 181.062 161.805 180.914 162.553 180.619C163.31 180.323 163.896 179.912 164.312 179.386C164.727 178.86 164.935 178.255 164.935 177.572C164.935 176.935 164.746 176.399 164.367 175.965C163.998 175.531 163.453 175.162 162.733 174.857C162.022 174.553 161.15 174.276 160.115 174.026L157.027 173.251C154.636 172.669 152.748 171.76 151.363 170.522C149.978 169.285 149.29 167.619 149.299 165.523C149.29 163.805 149.747 162.305 150.67 161.022C151.603 159.738 152.881 158.737 154.506 158.016C156.131 157.296 157.978 156.936 160.046 156.936C162.151 156.936 163.989 157.296 165.558 158.016C167.137 158.737 168.365 159.738 169.242 161.022C170.119 162.305 170.572 163.792 170.599 165.481H164.852ZM185.225 164.415V168.847H172.414V164.415H185.225ZM175.323 159.318H181.223V179.151C181.223 179.695 181.306 180.12 181.472 180.425C181.638 180.72 181.869 180.928 182.164 181.048C182.469 181.168 182.82 181.228 183.217 181.228C183.494 181.228 183.771 181.205 184.048 181.159C184.325 181.103 184.537 181.062 184.685 181.034L185.613 185.424C185.317 185.517 184.902 185.623 184.366 185.743C183.831 185.872 183.18 185.951 182.414 185.978C180.992 186.034 179.745 185.844 178.674 185.411C177.612 184.977 176.786 184.303 176.195 183.388C175.604 182.474 175.313 181.32 175.323 179.926V159.318ZM194.134 186.089C192.777 186.089 191.568 185.854 190.506 185.383C189.444 184.903 188.604 184.196 187.985 183.264C187.376 182.322 187.071 181.15 187.071 179.746C187.071 178.564 187.288 177.572 187.722 176.768C188.156 175.965 188.747 175.319 189.495 174.83C190.243 174.34 191.092 173.971 192.043 173.722C193.003 173.472 194.01 173.297 195.062 173.195C196.299 173.066 197.297 172.946 198.054 172.835C198.811 172.715 199.36 172.54 199.702 172.309C200.043 172.078 200.214 171.737 200.214 171.284V171.201C200.214 170.324 199.937 169.645 199.383 169.165C198.839 168.685 198.063 168.445 197.057 168.445C195.995 168.445 195.15 168.68 194.522 169.151C193.894 169.613 193.479 170.195 193.276 170.896L187.819 170.453C188.096 169.161 188.641 168.043 189.453 167.102C190.266 166.151 191.314 165.421 192.597 164.913C193.89 164.396 195.385 164.138 197.084 164.138C198.266 164.138 199.397 164.276 200.477 164.553C201.567 164.83 202.532 165.26 203.372 165.841C204.221 166.423 204.891 167.171 205.38 168.085C205.869 168.99 206.114 170.075 206.114 171.339V185.688H200.519V182.738H200.353C200.011 183.402 199.554 183.989 198.982 184.496C198.409 184.995 197.721 185.387 196.918 185.674C196.115 185.951 195.187 186.089 194.134 186.089ZM195.824 182.017C196.692 182.017 197.458 181.847 198.123 181.505C198.788 181.154 199.309 180.683 199.688 180.092C200.066 179.501 200.256 178.832 200.256 178.084V175.827C200.071 175.947 199.817 176.058 199.494 176.159C199.18 176.251 198.825 176.339 198.428 176.422C198.031 176.496 197.634 176.565 197.237 176.63C196.84 176.685 196.479 176.736 196.156 176.782C195.464 176.884 194.859 177.045 194.342 177.267C193.825 177.489 193.423 177.789 193.137 178.167C192.851 178.537 192.708 178.998 192.708 179.552C192.708 180.355 192.999 180.969 193.58 181.394C194.171 181.81 194.919 182.017 195.824 182.017ZM209.691 185.688V164.415H215.411V168.126H215.633C216.021 166.806 216.671 165.809 217.585 165.135C218.5 164.452 219.552 164.11 220.743 164.11C221.039 164.11 221.357 164.129 221.699 164.165C222.04 164.202 222.34 164.253 222.599 164.318V169.553C222.322 169.47 221.939 169.396 221.449 169.331C220.96 169.267 220.512 169.234 220.106 169.234C219.238 169.234 218.463 169.424 217.779 169.802C217.105 170.172 216.57 170.689 216.173 171.353C215.785 172.018 215.591 172.784 215.591 173.652V185.688H209.691ZM237.031 164.415V168.847H224.22V164.415H237.031ZM227.128 159.318H233.028V179.151C233.028 179.695 233.111 180.12 233.278 180.425C233.444 180.72 233.675 180.928 233.97 181.048C234.275 181.168 234.626 181.228 235.023 181.228C235.3 181.228 235.577 181.205 235.854 181.159C236.131 181.103 236.343 181.062 236.491 181.034L237.419 185.424C237.123 185.517 236.708 185.623 236.172 185.743C235.637 185.872 234.986 185.951 234.219 185.978C232.797 186.034 231.551 185.844 230.48 185.411C229.418 184.977 228.592 184.303 228.001 183.388C227.41 182.474 227.119 181.32 227.128 179.926V159.318ZM257.512 186.103C255.333 186.103 253.459 185.641 251.889 184.718C250.329 183.786 249.128 182.493 248.288 180.84C247.457 179.187 247.042 177.286 247.042 175.134C247.042 172.955 247.462 171.044 248.302 169.401C249.151 167.748 250.356 166.46 251.917 165.537C253.477 164.604 255.333 164.138 257.484 164.138C259.34 164.138 260.965 164.475 262.359 165.149C263.753 165.823 264.857 166.769 265.669 167.988C266.482 169.207 266.929 170.638 267.013 172.281H261.445C261.288 171.219 260.873 170.365 260.199 169.719C259.534 169.064 258.661 168.736 257.581 168.736C256.667 168.736 255.868 168.985 255.185 169.484C254.511 169.973 253.985 170.689 253.606 171.63C253.228 172.572 253.038 173.712 253.038 175.051C253.038 176.408 253.223 177.562 253.592 178.513C253.971 179.464 254.502 180.189 255.185 180.688C255.868 181.186 256.667 181.436 257.581 181.436C258.255 181.436 258.86 181.297 259.395 181.02C259.94 180.743 260.388 180.342 260.739 179.815C261.099 179.28 261.334 178.638 261.445 177.89H267.013C266.92 179.515 266.477 180.946 265.683 182.184C264.898 183.412 263.813 184.372 262.428 185.064C261.043 185.757 259.405 186.103 257.512 186.103ZM279.401 186.103C277.25 186.103 275.39 185.646 273.82 184.732C272.26 183.809 271.055 182.525 270.205 180.882C269.356 179.229 268.931 177.313 268.931 175.134C268.931 172.937 269.356 171.016 270.205 169.373C271.055 167.72 272.26 166.437 273.82 165.523C275.39 164.599 277.25 164.138 279.401 164.138C281.553 164.138 283.409 164.599 284.969 165.523C286.539 166.437 287.748 167.72 288.597 169.373C289.447 171.016 289.872 172.937 289.872 175.134C289.872 177.313 289.447 179.229 288.597 180.882C287.748 182.525 286.539 183.809 284.969 184.732C283.409 185.646 281.553 186.103 279.401 186.103ZM279.429 181.533C280.408 181.533 281.225 181.256 281.881 180.702C282.536 180.138 283.03 179.372 283.362 178.403C283.704 177.433 283.875 176.33 283.875 175.093C283.875 173.855 283.704 172.752 283.362 171.783C283.03 170.813 282.536 170.047 281.881 169.484C281.225 168.92 280.408 168.639 279.429 168.639C278.441 168.639 277.61 168.92 276.936 169.484C276.271 170.047 275.768 170.813 275.427 171.783C275.094 172.752 274.928 173.855 274.928 175.093C274.928 176.33 275.094 177.433 275.427 178.403C275.768 179.372 276.271 180.138 276.936 180.702C277.61 181.256 278.441 181.533 279.429 181.533ZM292.708 185.688V164.415H298.331V168.168H298.58C299.023 166.922 299.762 165.938 300.796 165.218C301.83 164.498 303.067 164.138 304.508 164.138C305.966 164.138 307.208 164.502 308.233 165.232C309.258 165.952 309.941 166.931 310.283 168.168H310.504C310.938 166.949 311.723 165.975 312.859 165.246C314.004 164.507 315.356 164.138 316.917 164.138C318.902 164.138 320.513 164.77 321.75 166.035C322.997 167.291 323.62 169.073 323.62 171.381V185.688H317.734V172.544C317.734 171.363 317.42 170.476 316.792 169.885C316.164 169.294 315.379 168.999 314.438 168.999C313.367 168.999 312.531 169.341 311.931 170.024C311.331 170.698 311.031 171.589 311.031 172.697V185.688H305.311V172.42C305.311 171.376 305.011 170.545 304.411 169.927C303.82 169.308 303.04 168.999 302.07 168.999C301.415 168.999 300.824 169.165 300.297 169.498C299.78 169.821 299.369 170.278 299.065 170.869C298.76 171.45 298.608 172.134 298.608 172.918V185.688H292.708ZM327.28 185.688V164.415H332.903V168.168H333.152C333.596 166.922 334.334 165.938 335.368 165.218C336.402 164.498 337.64 164.138 339.08 164.138C340.539 164.138 341.781 164.502 342.805 165.232C343.83 165.952 344.513 166.931 344.855 168.168H345.077C345.511 166.949 346.295 165.975 347.431 165.246C348.576 164.507 349.929 164.138 351.489 164.138C353.474 164.138 355.085 164.77 356.322 166.035C357.569 167.291 358.192 169.073 358.192 171.381V185.688H352.306V172.544C352.306 171.363 351.992 170.476 351.364 169.885C350.737 169.294 349.952 168.999 349.01 168.999C347.939 168.999 347.103 169.341 346.503 170.024C345.903 170.698 345.603 171.589 345.603 172.697V185.688H339.883V172.42C339.883 171.376 339.583 170.545 338.983 169.927C338.392 169.308 337.612 168.999 336.642 168.999C335.987 168.999 335.396 169.165 334.87 169.498C334.353 169.821 333.942 170.278 333.637 170.869C333.332 171.45 333.18 172.134 333.18 172.918V185.688H327.28ZM375.494 176.63V164.415H381.394V185.688H375.73V181.824H375.508C375.028 183.07 374.229 184.072 373.112 184.829C372.004 185.586 370.651 185.964 369.054 185.964C367.632 185.964 366.381 185.641 365.301 184.995C364.221 184.349 363.376 183.43 362.767 182.239C362.166 181.048 361.862 179.621 361.852 177.96V164.415H367.752V176.907C367.762 178.163 368.099 179.155 368.763 179.885C369.428 180.614 370.319 180.979 371.436 180.979C372.147 180.979 372.812 180.817 373.431 180.494C374.049 180.162 374.548 179.672 374.926 179.026C375.314 178.38 375.503 177.581 375.494 176.63ZM396.428 164.415V168.847H383.617V164.415H396.428ZM386.526 159.318H392.426V179.151C392.426 179.695 392.509 180.12 392.675 180.425C392.841 180.72 393.072 180.928 393.367 181.048C393.672 181.168 394.023 181.228 394.42 181.228C394.697 181.228 394.974 181.205 395.251 181.159C395.528 181.103 395.74 181.062 395.888 181.034L396.816 185.424C396.521 185.517 396.105 185.623 395.57 185.743C395.034 185.872 394.383 185.951 393.617 185.978C392.195 186.034 390.948 185.844 389.877 185.411C388.816 184.977 387.989 184.303 387.398 183.388C386.807 182.474 386.517 181.32 386.526 179.926V159.318ZM399.271 185.688V164.415H405.171V185.688H399.271ZM402.235 161.673C401.358 161.673 400.606 161.382 399.978 160.8C399.359 160.209 399.05 159.503 399.05 158.681C399.05 157.869 399.359 157.172 399.978 156.59C400.606 155.999 401.358 155.703 402.235 155.703C403.112 155.703 403.86 155.999 404.479 156.59C405.107 157.172 405.421 157.869 405.421 158.681C405.421 159.503 405.107 160.209 404.479 160.8C403.86 161.382 403.112 161.673 402.235 161.673ZM414.797 173.389V185.688H408.897V164.415H414.52V168.168H414.77C415.24 166.931 416.03 165.952 417.138 165.232C418.246 164.502 419.589 164.138 421.168 164.138C422.645 164.138 423.933 164.461 425.032 165.107C426.131 165.754 426.985 166.677 427.594 167.877C428.203 169.068 428.508 170.49 428.508 172.143V185.688H422.608V173.195C422.618 171.893 422.285 170.878 421.611 170.148C420.937 169.41 420.009 169.04 418.827 169.04C418.033 169.04 417.332 169.211 416.722 169.553C416.122 169.895 415.651 170.393 415.31 171.049C414.977 171.695 414.806 172.475 414.797 173.389ZM441.742 194.108C439.831 194.108 438.192 193.845 436.825 193.319C435.468 192.801 434.388 192.095 433.585 191.2C432.781 190.304 432.26 189.298 432.02 188.18L437.476 187.446C437.642 187.871 437.906 188.268 438.266 188.637C438.626 189.007 439.101 189.302 439.692 189.524C440.292 189.755 441.022 189.87 441.88 189.87C443.164 189.87 444.221 189.556 445.052 188.928C445.892 188.31 446.312 187.271 446.312 185.812V181.92H446.063C445.804 182.511 445.417 183.07 444.9 183.596C444.383 184.123 443.718 184.552 442.905 184.884C442.093 185.217 441.123 185.383 439.997 185.383C438.4 185.383 436.945 185.013 435.634 184.275C434.332 183.527 433.294 182.387 432.518 180.854C431.752 179.312 431.369 177.364 431.369 175.01C431.369 172.6 431.761 170.587 432.546 168.971C433.331 167.355 434.374 166.146 435.676 165.343C436.987 164.539 438.423 164.138 439.983 164.138C441.174 164.138 442.171 164.341 442.975 164.747C443.778 165.144 444.424 165.643 444.913 166.243C445.412 166.834 445.795 167.415 446.063 167.988H446.285V164.415H452.143V185.895C452.143 187.705 451.7 189.219 450.813 190.438C449.927 191.657 448.699 192.571 447.129 193.18C445.569 193.799 443.773 194.108 441.742 194.108ZM441.867 180.951C442.818 180.951 443.621 180.716 444.276 180.245C444.941 179.765 445.449 179.081 445.8 178.195C446.16 177.299 446.34 176.228 446.34 174.982C446.34 173.735 446.165 172.655 445.814 171.741C445.463 170.818 444.955 170.102 444.29 169.594C443.625 169.087 442.818 168.833 441.867 168.833C440.897 168.833 440.08 169.096 439.415 169.622C438.75 170.139 438.247 170.859 437.906 171.783C437.564 172.706 437.393 173.772 437.393 174.982C437.393 176.21 437.564 177.272 437.906 178.167C438.256 179.054 438.76 179.741 439.415 180.231C440.08 180.711 440.897 180.951 441.867 180.951ZM475.179 164.415V168.847H462.368V164.415H475.179ZM465.277 159.318H471.177V179.151C471.177 179.695 471.26 180.12 471.426 180.425C471.592 180.72 471.823 180.928 472.118 181.048C472.423 181.168 472.774 181.228 473.171 181.228C473.448 181.228 473.725 181.205 474.002 181.159C474.279 181.103 474.491 181.062 474.639 181.034L475.567 185.424C475.271 185.517 474.856 185.623 474.32 185.743C473.785 185.872 473.134 185.951 472.368 185.978C470.946 186.034 469.699 185.844 468.628 185.411C467.567 184.977 466.74 184.303 466.149 183.388C465.558 182.474 465.268 181.32 465.277 179.926V159.318ZM487.405 186.103C485.254 186.103 483.394 185.646 481.824 184.732C480.264 183.809 479.059 182.525 478.209 180.882C477.36 179.229 476.935 177.313 476.935 175.134C476.935 172.937 477.36 171.016 478.209 169.373C479.059 167.72 480.264 166.437 481.824 165.523C483.394 164.599 485.254 164.138 487.405 164.138C489.557 164.138 491.412 164.599 492.973 165.523C494.542 166.437 495.752 167.72 496.601 169.373C497.451 171.016 497.876 172.937 497.876 175.134C497.876 177.313 497.451 179.229 496.601 180.882C495.752 182.525 494.542 183.809 492.973 184.732C491.412 185.646 489.557 186.103 487.405 186.103ZM487.433 181.533C488.412 181.533 489.229 181.256 489.884 180.702C490.54 180.138 491.034 179.372 491.366 178.403C491.708 177.433 491.879 176.33 491.879 175.093C491.879 173.855 491.708 172.752 491.366 171.783C491.034 170.813 490.54 170.047 489.884 169.484C489.229 168.92 488.412 168.639 487.433 168.639C486.445 168.639 485.614 168.92 484.94 169.484C484.275 170.047 483.772 170.813 483.431 171.783C483.098 172.752 482.932 173.855 482.932 175.093C482.932 176.33 483.098 177.433 483.431 178.403C483.772 179.372 484.275 180.138 484.94 180.702C485.614 181.256 486.445 181.533 487.433 181.533ZM508.551 186.034C506.935 186.034 505.471 185.618 504.16 184.787C502.858 183.947 501.824 182.714 501.058 181.089C500.301 179.455 499.922 177.452 499.922 175.079C499.922 172.641 500.315 170.615 501.1 168.999C501.884 167.374 502.928 166.16 504.23 165.357C505.541 164.544 506.976 164.138 508.537 164.138C509.728 164.138 510.72 164.341 511.514 164.747C512.318 165.144 512.964 165.643 513.453 166.243C513.952 166.834 514.33 167.415 514.589 167.988H514.769V157.324H520.655V185.688H514.838V182.281H514.589C514.312 182.871 513.92 183.458 513.412 184.039C512.913 184.612 512.262 185.087 511.459 185.466C510.665 185.844 509.695 186.034 508.551 186.034ZM510.42 181.339C511.371 181.339 512.175 181.08 512.83 180.563C513.495 180.037 514.003 179.303 514.354 178.361C514.714 177.419 514.894 176.316 514.894 175.051C514.894 173.786 514.718 172.687 514.367 171.755C514.017 170.822 513.509 170.102 512.844 169.594C512.179 169.087 511.371 168.833 510.42 168.833C509.451 168.833 508.634 169.096 507.969 169.622C507.304 170.148 506.801 170.878 506.459 171.81C506.118 172.743 505.947 173.823 505.947 175.051C505.947 176.288 506.118 177.382 506.459 178.333C506.81 179.275 507.313 180.014 507.969 180.549C508.634 181.076 509.451 181.339 510.42 181.339ZM530.572 186.089C529.215 186.089 528.005 185.854 526.943 185.383C525.881 184.903 525.041 184.196 524.423 183.264C523.813 182.322 523.509 181.15 523.509 179.746C523.509 178.564 523.726 177.572 524.16 176.768C524.593 175.965 525.184 175.319 525.932 174.83C526.68 174.34 527.53 173.971 528.481 173.722C529.441 173.472 530.447 173.297 531.5 173.195C532.737 173.066 533.734 172.946 534.491 172.835C535.248 172.715 535.798 172.54 536.139 172.309C536.481 172.078 536.652 171.737 536.652 171.284V171.201C536.652 170.324 536.375 169.645 535.821 169.165C535.276 168.685 534.5 168.445 533.494 168.445C532.432 168.445 531.587 168.68 530.96 169.151C530.332 169.613 529.916 170.195 529.713 170.896L524.256 170.453C524.533 169.161 525.078 168.043 525.891 167.102C526.703 166.151 527.751 165.421 529.035 164.913C530.327 164.396 531.823 164.138 533.522 164.138C534.704 164.138 535.835 164.276 536.915 164.553C538.004 164.83 538.969 165.26 539.809 165.841C540.659 166.423 541.328 167.171 541.818 168.085C542.307 168.99 542.552 170.075 542.552 171.339V185.688H536.956V182.738H536.79C536.449 183.402 535.992 183.989 535.419 184.496C534.847 184.995 534.159 185.387 533.356 185.674C532.552 185.951 531.624 186.089 530.572 186.089ZM532.261 182.017C533.129 182.017 533.896 181.847 534.56 181.505C535.225 181.154 535.747 180.683 536.125 180.092C536.504 179.501 536.693 178.832 536.693 178.084V175.827C536.509 175.947 536.255 176.058 535.932 176.159C535.618 176.251 535.262 176.339 534.865 176.422C534.468 176.496 534.071 176.565 533.674 176.63C533.277 176.685 532.917 176.736 532.594 176.782C531.901 176.884 531.297 177.045 530.78 177.267C530.263 177.489 529.861 177.789 529.575 178.167C529.288 178.537 529.145 178.998 529.145 179.552C529.145 180.355 529.436 180.969 530.018 181.394C530.609 181.81 531.357 182.017 532.261 182.017ZM549.009 193.665C548.262 193.665 547.56 193.605 546.904 193.485C546.258 193.374 545.723 193.231 545.298 193.055L546.627 188.651C547.32 188.864 547.943 188.979 548.497 188.998C549.06 189.016 549.545 188.887 549.951 188.61C550.367 188.333 550.704 187.862 550.962 187.197L551.309 186.297L543.677 164.415H549.882L554.286 180.037H554.508L558.953 164.415H565.199L556.931 187.987C556.534 189.131 555.994 190.129 555.311 190.978C554.637 191.837 553.783 192.497 552.749 192.958C551.715 193.429 550.468 193.665 549.009 193.665ZM569.334 186.048C568.42 186.048 567.635 185.724 566.98 185.078C566.333 184.423 566.01 183.638 566.01 182.724C566.01 181.819 566.333 181.043 566.98 180.397C567.635 179.751 568.42 179.428 569.334 179.428C570.221 179.428 570.996 179.751 571.661 180.397C572.326 181.043 572.658 181.819 572.658 182.724C572.658 183.333 572.501 183.892 572.187 184.4C571.882 184.898 571.481 185.3 570.982 185.604C570.484 185.9 569.934 186.048 569.334 186.048Z" fill="white"/>
        <rect x="697" y="115.281" width="530" height="60" rx="6" fill="white" fill-opacity="0.25"/>
        <path d="M722.844 136.406L725.797 142.117L728.758 136.406H730.469L726.547 143.531V147.781H725.039V143.531L721.117 136.406H722.844ZM730.812 143.648V143.469C730.812 142.859 730.901 142.294 731.078 141.773C731.255 141.247 731.51 140.792 731.844 140.406C732.177 140.016 732.581 139.714 733.055 139.5C733.529 139.281 734.06 139.172 734.648 139.172C735.242 139.172 735.776 139.281 736.25 139.5C736.729 139.714 737.135 140.016 737.469 140.406C737.807 140.792 738.065 141.247 738.242 141.773C738.419 142.294 738.508 142.859 738.508 143.469V143.648C738.508 144.258 738.419 144.823 738.242 145.344C738.065 145.865 737.807 146.32 737.469 146.711C737.135 147.096 736.732 147.398 736.258 147.617C735.789 147.831 735.258 147.938 734.664 147.938C734.07 147.938 733.536 147.831 733.062 147.617C732.589 147.398 732.182 147.096 731.844 146.711C731.51 146.32 731.255 145.865 731.078 145.344C730.901 144.823 730.812 144.258 730.812 143.648ZM732.258 143.469V143.648C732.258 144.07 732.307 144.469 732.406 144.844C732.505 145.214 732.654 145.542 732.852 145.828C733.055 146.115 733.307 146.341 733.609 146.508C733.911 146.669 734.263 146.75 734.664 146.75C735.06 146.75 735.406 146.669 735.703 146.508C736.005 146.341 736.255 146.115 736.453 145.828C736.651 145.542 736.799 145.214 736.898 144.844C737.003 144.469 737.055 144.07 737.055 143.648V143.469C737.055 143.052 737.003 142.659 736.898 142.289C736.799 141.914 736.648 141.583 736.445 141.297C736.247 141.005 735.997 140.776 735.695 140.609C735.398 140.443 735.049 140.359 734.648 140.359C734.253 140.359 733.904 140.443 733.602 140.609C733.305 140.776 733.055 141.005 732.852 141.297C732.654 141.583 732.505 141.914 732.406 142.289C732.307 142.659 732.258 143.052 732.258 143.469ZM745.492 145.828V139.328H746.945V147.781H745.562L745.492 145.828ZM745.766 144.047L746.367 144.031C746.367 144.594 746.307 145.115 746.188 145.594C746.073 146.068 745.885 146.479 745.625 146.828C745.365 147.177 745.023 147.451 744.602 147.648C744.18 147.841 743.667 147.938 743.062 147.938C742.651 147.938 742.273 147.878 741.93 147.758C741.591 147.638 741.299 147.453 741.055 147.203C740.81 146.953 740.62 146.628 740.484 146.227C740.354 145.826 740.289 145.344 740.289 144.781V139.328H741.734V144.797C741.734 145.177 741.776 145.492 741.859 145.742C741.948 145.987 742.065 146.182 742.211 146.328C742.362 146.469 742.529 146.568 742.711 146.625C742.898 146.682 743.091 146.711 743.289 146.711C743.904 146.711 744.391 146.594 744.75 146.359C745.109 146.12 745.367 145.799 745.523 145.398C745.685 144.992 745.766 144.542 745.766 144.047ZM750.594 140.656V147.781H749.148V139.328H750.555L750.594 140.656ZM753.234 139.281L753.227 140.625C753.107 140.599 752.992 140.583 752.883 140.578C752.779 140.568 752.659 140.562 752.523 140.562C752.19 140.562 751.896 140.615 751.641 140.719C751.385 140.823 751.169 140.969 750.992 141.156C750.815 141.344 750.674 141.568 750.57 141.828C750.471 142.083 750.406 142.365 750.375 142.672L749.969 142.906C749.969 142.396 750.018 141.917 750.117 141.469C750.221 141.021 750.38 140.625 750.594 140.281C750.807 139.932 751.078 139.661 751.406 139.469C751.74 139.271 752.135 139.172 752.594 139.172C752.698 139.172 752.818 139.185 752.953 139.211C753.089 139.232 753.182 139.255 753.234 139.281ZM762.047 147.938C761.458 147.938 760.924 147.839 760.445 147.641C759.971 147.438 759.562 147.154 759.219 146.789C758.88 146.424 758.62 145.992 758.438 145.492C758.255 144.992 758.164 144.445 758.164 143.852V143.523C758.164 142.836 758.266 142.224 758.469 141.688C758.672 141.146 758.948 140.688 759.297 140.312C759.646 139.938 760.042 139.654 760.484 139.461C760.927 139.268 761.385 139.172 761.859 139.172C762.464 139.172 762.984 139.276 763.422 139.484C763.865 139.693 764.227 139.984 764.508 140.359C764.789 140.729 764.997 141.167 765.133 141.672C765.268 142.172 765.336 142.719 765.336 143.312V143.961H759.023V142.781H763.891V142.672C763.87 142.297 763.792 141.932 763.656 141.578C763.526 141.224 763.318 140.932 763.031 140.703C762.745 140.474 762.354 140.359 761.859 140.359C761.531 140.359 761.229 140.43 760.953 140.57C760.677 140.706 760.44 140.909 760.242 141.18C760.044 141.451 759.891 141.781 759.781 142.172C759.672 142.562 759.617 143.013 759.617 143.523V143.852C759.617 144.253 759.672 144.63 759.781 144.984C759.896 145.333 760.06 145.641 760.273 145.906C760.492 146.172 760.755 146.38 761.062 146.531C761.375 146.682 761.729 146.758 762.125 146.758C762.635 146.758 763.068 146.654 763.422 146.445C763.776 146.237 764.086 145.958 764.352 145.609L765.227 146.305C765.044 146.581 764.812 146.844 764.531 147.094C764.25 147.344 763.904 147.547 763.492 147.703C763.086 147.859 762.604 147.938 762.047 147.938ZM768.461 141.008V147.781H767.008V139.328H768.383L768.461 141.008ZM768.164 143.234L767.492 143.211C767.497 142.633 767.573 142.099 767.719 141.609C767.865 141.115 768.081 140.685 768.367 140.32C768.654 139.956 769.01 139.674 769.438 139.477C769.865 139.273 770.359 139.172 770.922 139.172C771.318 139.172 771.682 139.229 772.016 139.344C772.349 139.453 772.638 139.628 772.883 139.867C773.128 140.107 773.318 140.414 773.453 140.789C773.589 141.164 773.656 141.617 773.656 142.148V147.781H772.211V142.219C772.211 141.776 772.135 141.422 771.984 141.156C771.839 140.891 771.63 140.698 771.359 140.578C771.089 140.453 770.771 140.391 770.406 140.391C769.979 140.391 769.622 140.466 769.336 140.617C769.049 140.768 768.82 140.977 768.648 141.242C768.477 141.508 768.352 141.812 768.273 142.156C768.201 142.495 768.164 142.854 768.164 143.234ZM773.641 142.438L772.672 142.734C772.677 142.271 772.753 141.826 772.898 141.398C773.049 140.971 773.266 140.591 773.547 140.258C773.833 139.924 774.185 139.661 774.602 139.469C775.018 139.271 775.495 139.172 776.031 139.172C776.484 139.172 776.885 139.232 777.234 139.352C777.589 139.471 777.885 139.656 778.125 139.906C778.37 140.151 778.555 140.466 778.68 140.852C778.805 141.237 778.867 141.695 778.867 142.227V147.781H777.414V142.211C777.414 141.737 777.339 141.37 777.188 141.109C777.042 140.844 776.833 140.659 776.562 140.555C776.297 140.445 775.979 140.391 775.609 140.391C775.292 140.391 775.01 140.445 774.766 140.555C774.521 140.664 774.315 140.815 774.148 141.008C773.982 141.195 773.854 141.411 773.766 141.656C773.682 141.901 773.641 142.161 773.641 142.438ZM786.039 146.336V141.984C786.039 141.651 785.971 141.362 785.836 141.117C785.706 140.867 785.508 140.674 785.242 140.539C784.977 140.404 784.648 140.336 784.258 140.336C783.893 140.336 783.573 140.398 783.297 140.523C783.026 140.648 782.812 140.812 782.656 141.016C782.505 141.219 782.43 141.438 782.43 141.672H780.984C780.984 141.37 781.062 141.07 781.219 140.773C781.375 140.477 781.599 140.208 781.891 139.969C782.188 139.724 782.542 139.531 782.953 139.391C783.37 139.245 783.833 139.172 784.344 139.172C784.958 139.172 785.5 139.276 785.969 139.484C786.443 139.693 786.812 140.008 787.078 140.43C787.349 140.846 787.484 141.37 787.484 142V145.938C787.484 146.219 787.508 146.518 787.555 146.836C787.607 147.154 787.682 147.427 787.781 147.656V147.781H786.273C786.201 147.615 786.143 147.393 786.102 147.117C786.06 146.836 786.039 146.576 786.039 146.336ZM786.289 142.656L786.305 143.672H784.844C784.432 143.672 784.065 143.706 783.742 143.773C783.419 143.836 783.148 143.932 782.93 144.062C782.711 144.193 782.544 144.357 782.43 144.555C782.315 144.747 782.258 144.974 782.258 145.234C782.258 145.5 782.318 145.742 782.438 145.961C782.557 146.18 782.737 146.354 782.977 146.484C783.221 146.609 783.521 146.672 783.875 146.672C784.318 146.672 784.708 146.578 785.047 146.391C785.385 146.203 785.654 145.974 785.852 145.703C786.055 145.432 786.164 145.169 786.18 144.914L786.797 145.609C786.76 145.828 786.661 146.07 786.5 146.336C786.339 146.602 786.122 146.857 785.852 147.102C785.586 147.341 785.268 147.542 784.898 147.703C784.534 147.859 784.122 147.938 783.664 147.938C783.091 147.938 782.589 147.826 782.156 147.602C781.729 147.378 781.396 147.078 781.156 146.703C780.922 146.323 780.805 145.898 780.805 145.43C780.805 144.977 780.893 144.578 781.07 144.234C781.247 143.885 781.503 143.596 781.836 143.367C782.169 143.133 782.57 142.956 783.039 142.836C783.508 142.716 784.031 142.656 784.609 142.656H786.289ZM791.328 139.328V147.781H789.875V139.328H791.328ZM789.766 137.086C789.766 136.852 789.836 136.654 789.977 136.492C790.122 136.331 790.336 136.25 790.617 136.25C790.893 136.25 791.104 136.331 791.25 136.492C791.401 136.654 791.477 136.852 791.477 137.086C791.477 137.31 791.401 137.503 791.25 137.664C791.104 137.82 790.893 137.898 790.617 137.898C790.336 137.898 790.122 137.82 789.977 137.664C789.836 137.503 789.766 137.31 789.766 137.086ZM795.219 135.781V147.781H793.766V135.781H795.219ZM797.562 147.016C797.562 146.771 797.638 146.565 797.789 146.398C797.945 146.227 798.169 146.141 798.461 146.141C798.753 146.141 798.974 146.227 799.125 146.398C799.281 146.565 799.359 146.771 799.359 147.016C799.359 147.255 799.281 147.458 799.125 147.625C798.974 147.792 798.753 147.875 798.461 147.875C798.169 147.875 797.945 147.792 797.789 147.625C797.638 147.458 797.562 147.255 797.562 147.016ZM801.781 147.016C801.781 146.771 801.857 146.565 802.008 146.398C802.164 146.227 802.388 146.141 802.68 146.141C802.971 146.141 803.193 146.227 803.344 146.398C803.5 146.565 803.578 146.771 803.578 147.016C803.578 147.255 803.5 147.458 803.344 147.625C803.193 147.792 802.971 147.875 802.68 147.875C802.388 147.875 802.164 147.792 802.008 147.625C801.857 147.458 801.781 147.255 801.781 147.016ZM806 147.016C806 146.771 806.076 146.565 806.227 146.398C806.383 146.227 806.607 146.141 806.898 146.141C807.19 146.141 807.411 146.227 807.562 146.398C807.719 146.565 807.797 146.771 807.797 147.016C807.797 147.255 807.719 147.458 807.562 147.625C807.411 147.792 807.19 147.875 806.898 147.875C806.607 147.875 806.383 147.792 806.227 147.625C806.076 147.458 806 147.255 806 147.016Z" fill="white" fill-opacity="0.7"/>
        <g filter="url(#filter1_d_1_6290)">
            <rect x="1037" y="121.281" width="184" height="48" rx="6" fill="white"/>
            <path d="M1078.73 147.328C1078.73 147.109 1078.69 146.914 1078.62 146.742C1078.56 146.565 1078.45 146.406 1078.27 146.266C1078.11 146.12 1077.87 145.979 1077.56 145.844C1077.26 145.703 1076.87 145.557 1076.39 145.406C1075.86 145.24 1075.36 145.052 1074.91 144.844C1074.45 144.635 1074.04 144.393 1073.7 144.117C1073.35 143.841 1073.08 143.523 1072.89 143.164C1072.7 142.799 1072.6 142.378 1072.6 141.898C1072.6 141.43 1072.7 141.003 1072.9 140.617C1073.1 140.232 1073.39 139.901 1073.76 139.625C1074.13 139.344 1074.56 139.128 1075.06 138.977C1075.57 138.826 1076.12 138.75 1076.73 138.75C1077.58 138.75 1078.31 138.904 1078.92 139.211C1079.54 139.518 1080.02 139.935 1080.36 140.461C1080.7 140.987 1080.87 141.578 1080.87 142.234H1078.73C1078.73 141.88 1078.65 141.568 1078.5 141.297C1078.35 141.026 1078.13 140.812 1077.83 140.656C1077.53 140.5 1077.16 140.422 1076.7 140.422C1076.27 140.422 1075.9 140.487 1075.61 140.617C1075.32 140.747 1075.11 140.924 1074.96 141.148C1074.82 141.372 1074.75 141.622 1074.75 141.898C1074.75 142.107 1074.8 142.294 1074.9 142.461C1075 142.622 1075.15 142.776 1075.34 142.922C1075.54 143.062 1075.79 143.195 1076.08 143.32C1076.38 143.44 1076.72 143.56 1077.11 143.68C1077.73 143.867 1078.28 144.076 1078.75 144.305C1079.22 144.534 1079.62 144.794 1079.93 145.086C1080.25 145.378 1080.48 145.706 1080.64 146.07C1080.8 146.435 1080.88 146.849 1080.88 147.312C1080.88 147.802 1080.79 148.24 1080.59 148.625C1080.4 149.01 1080.12 149.339 1079.77 149.609C1079.41 149.88 1078.97 150.086 1078.47 150.227C1077.97 150.367 1077.41 150.438 1076.79 150.438C1076.24 150.438 1075.69 150.365 1075.15 150.219C1074.61 150.068 1074.12 149.844 1073.69 149.547C1073.25 149.245 1072.9 148.865 1072.64 148.406C1072.38 147.943 1072.25 147.401 1072.25 146.781H1074.41C1074.41 147.141 1074.46 147.448 1074.58 147.703C1074.7 147.953 1074.86 148.159 1075.08 148.32C1075.3 148.477 1075.55 148.591 1075.84 148.664C1076.14 148.737 1076.45 148.773 1076.79 148.773C1077.23 148.773 1077.59 148.714 1077.87 148.594C1078.15 148.469 1078.37 148.297 1078.51 148.078C1078.65 147.859 1078.73 147.609 1078.73 147.328ZM1084.27 141.828V150.281H1082.2V141.828H1084.27ZM1082.06 139.617C1082.06 139.31 1082.16 139.055 1082.37 138.852C1082.59 138.648 1082.87 138.547 1083.23 138.547C1083.59 138.547 1083.87 138.648 1084.08 138.852C1084.3 139.055 1084.4 139.31 1084.4 139.617C1084.4 139.919 1084.3 140.172 1084.08 140.375C1083.87 140.578 1083.59 140.68 1083.23 140.68C1082.87 140.68 1082.59 140.578 1082.37 140.375C1082.16 140.172 1082.06 139.919 1082.06 139.617ZM1091.31 141.828H1093.19V150.023C1093.19 150.789 1093.02 151.438 1092.69 151.969C1092.36 152.505 1091.9 152.911 1091.31 153.188C1090.71 153.469 1090.02 153.609 1089.24 153.609C1088.9 153.609 1088.53 153.562 1088.13 153.469C1087.74 153.375 1087.37 153.227 1087 153.023C1086.64 152.826 1086.34 152.568 1086.1 152.25L1087.03 151.031C1087.31 151.359 1087.63 151.607 1087.99 151.773C1088.34 151.945 1088.72 152.031 1089.13 152.031C1089.55 152.031 1089.91 151.953 1090.2 151.797C1090.49 151.646 1090.72 151.422 1090.88 151.125C1091.04 150.833 1091.12 150.474 1091.12 150.047V143.758L1091.31 141.828ZM1085.6 146.156V145.992C1085.6 145.346 1085.68 144.76 1085.84 144.234C1085.99 143.703 1086.22 143.247 1086.51 142.867C1086.81 142.487 1087.16 142.193 1087.58 141.984C1088 141.776 1088.48 141.672 1089 141.672C1089.56 141.672 1090.03 141.773 1090.41 141.977C1090.79 142.18 1091.11 142.469 1091.36 142.844C1091.62 143.219 1091.81 143.664 1091.95 144.18C1092.1 144.69 1092.21 145.253 1092.29 145.867V146.312C1092.22 146.911 1092.1 147.461 1091.94 147.961C1091.78 148.461 1091.57 148.898 1091.31 149.273C1091.05 149.643 1090.73 149.93 1090.35 150.133C1089.96 150.336 1089.51 150.438 1088.99 150.438C1088.47 150.438 1088 150.331 1087.58 150.117C1087.16 149.904 1086.81 149.604 1086.51 149.219C1086.22 148.833 1085.99 148.38 1085.84 147.859C1085.68 147.339 1085.6 146.771 1085.6 146.156ZM1087.67 145.992V146.156C1087.67 146.521 1087.7 146.862 1087.77 147.18C1087.85 147.497 1087.96 147.779 1088.11 148.023C1088.26 148.263 1088.45 148.451 1088.68 148.586C1088.91 148.721 1089.18 148.789 1089.5 148.789C1089.93 148.789 1090.28 148.701 1090.55 148.523C1090.82 148.341 1091.03 148.094 1091.17 147.781C1091.32 147.464 1091.41 147.107 1091.45 146.711V145.484C1091.43 145.172 1091.37 144.883 1091.28 144.617C1091.2 144.352 1091.08 144.122 1090.93 143.93C1090.78 143.737 1090.59 143.586 1090.35 143.477C1090.12 143.367 1089.84 143.312 1089.52 143.312C1089.2 143.312 1088.93 143.383 1088.7 143.523C1088.46 143.659 1088.27 143.849 1088.12 144.094C1087.97 144.339 1087.85 144.622 1087.77 144.945C1087.7 145.268 1087.67 145.617 1087.67 145.992ZM1096.77 143.633V150.281H1094.71V141.828H1096.65L1096.77 143.633ZM1096.44 145.75H1095.83C1095.84 145.135 1095.92 144.578 1096.08 144.078C1096.25 143.578 1096.47 143.148 1096.76 142.789C1097.06 142.43 1097.41 142.154 1097.82 141.961C1098.23 141.768 1098.68 141.672 1099.18 141.672C1099.58 141.672 1099.95 141.729 1100.28 141.844C1100.61 141.958 1100.89 142.141 1101.12 142.391C1101.36 142.641 1101.55 142.969 1101.67 143.375C1101.8 143.776 1101.87 144.271 1101.87 144.859V150.281H1099.79V144.844C1099.79 144.458 1099.73 144.154 1099.62 143.93C1099.51 143.706 1099.34 143.547 1099.13 143.453C1098.92 143.359 1098.67 143.312 1098.36 143.312C1098.04 143.312 1097.76 143.378 1097.52 143.508C1097.29 143.633 1097.09 143.807 1096.93 144.031C1096.77 144.255 1096.65 144.513 1096.57 144.805C1096.49 145.096 1096.44 145.411 1096.44 145.75ZM1113.55 138.906H1115.7V146.461C1115.7 147.331 1115.52 148.062 1115.14 148.656C1114.77 149.245 1114.26 149.69 1113.61 149.992C1112.96 150.289 1112.23 150.438 1111.41 150.438C1110.57 150.438 1109.83 150.289 1109.18 149.992C1108.53 149.69 1108.02 149.245 1107.65 148.656C1107.28 148.062 1107.09 147.331 1107.09 146.461V138.906H1109.24V146.461C1109.24 146.992 1109.33 147.427 1109.51 147.766C1109.68 148.099 1109.93 148.346 1110.26 148.508C1110.58 148.669 1110.96 148.75 1111.41 148.75C1111.85 148.75 1112.24 148.669 1112.55 148.508C1112.88 148.346 1113.12 148.099 1113.3 147.766C1113.47 147.427 1113.55 146.992 1113.55 146.461V138.906ZM1119.35 143.453V153.531H1117.28V141.828H1119.19L1119.35 143.453ZM1124.78 145.969V146.133C1124.78 146.747 1124.71 147.318 1124.56 147.844C1124.42 148.365 1124.21 148.82 1123.93 149.211C1123.66 149.596 1123.31 149.898 1122.9 150.117C1122.5 150.331 1122.03 150.438 1121.5 150.438C1120.98 150.438 1120.52 150.339 1120.14 150.141C1119.75 149.938 1119.43 149.651 1119.16 149.281C1118.9 148.911 1118.68 148.482 1118.52 147.992C1118.36 147.497 1118.25 146.958 1118.17 146.375V145.852C1118.25 145.232 1118.36 144.669 1118.52 144.164C1118.68 143.654 1118.9 143.214 1119.16 142.844C1119.43 142.469 1119.75 142.18 1120.13 141.977C1120.52 141.773 1120.97 141.672 1121.48 141.672C1122.02 141.672 1122.49 141.773 1122.9 141.977C1123.31 142.18 1123.65 142.471 1123.93 142.852C1124.22 143.232 1124.43 143.685 1124.57 144.211C1124.71 144.737 1124.78 145.323 1124.78 145.969ZM1122.71 146.133V145.969C1122.71 145.594 1122.67 145.247 1122.61 144.93C1122.54 144.607 1122.43 144.326 1122.29 144.086C1122.15 143.841 1121.97 143.651 1121.75 143.516C1121.52 143.38 1121.25 143.312 1120.93 143.312C1120.62 143.312 1120.34 143.365 1120.11 143.469C1119.88 143.573 1119.7 143.721 1119.55 143.914C1119.41 144.107 1119.29 144.336 1119.21 144.602C1119.13 144.862 1119.08 145.151 1119.05 145.469V146.766C1119.1 147.151 1119.19 147.497 1119.33 147.805C1119.46 148.112 1119.66 148.357 1119.92 148.539C1120.18 148.721 1120.53 148.812 1120.95 148.812C1121.27 148.812 1121.54 148.742 1121.76 148.602C1121.99 148.461 1122.17 148.268 1122.31 148.023C1122.45 147.773 1122.55 147.487 1122.61 147.164C1122.68 146.841 1122.71 146.497 1122.71 146.133ZM1131.97 138.906V150.281H1129.83V138.906H1131.97ZM1136.56 143.82V145.516H1131.41V143.82H1136.56ZM1137.16 138.906V140.602H1131.41V138.906H1137.16ZM1137.63 146.141V145.977C1137.63 145.357 1137.72 144.786 1137.89 144.266C1138.07 143.74 1138.33 143.284 1138.67 142.898C1139.01 142.513 1139.42 142.214 1139.91 142C1140.4 141.781 1140.96 141.672 1141.58 141.672C1142.22 141.672 1142.78 141.781 1143.27 142C1143.76 142.214 1144.18 142.513 1144.52 142.898C1144.86 143.284 1145.12 143.74 1145.29 144.266C1145.47 144.786 1145.56 145.357 1145.56 145.977V146.141C1145.56 146.755 1145.47 147.326 1145.29 147.852C1145.12 148.372 1144.86 148.828 1144.52 149.219C1144.18 149.604 1143.77 149.904 1143.28 150.117C1142.79 150.331 1142.23 150.438 1141.6 150.438C1140.97 150.438 1140.41 150.331 1139.92 150.117C1139.42 149.904 1139.01 149.604 1138.67 149.219C1138.33 148.828 1138.07 148.372 1137.89 147.852C1137.72 147.326 1137.63 146.755 1137.63 146.141ZM1139.69 145.977V146.141C1139.69 146.51 1139.73 146.857 1139.8 147.18C1139.87 147.503 1139.98 147.786 1140.14 148.031C1140.29 148.276 1140.48 148.469 1140.72 148.609C1140.97 148.745 1141.26 148.812 1141.6 148.812C1141.93 148.812 1142.22 148.745 1142.46 148.609C1142.7 148.469 1142.89 148.276 1143.04 148.031C1143.2 147.786 1143.31 147.503 1143.39 147.18C1143.46 146.857 1143.5 146.51 1143.5 146.141V145.977C1143.5 145.612 1143.46 145.271 1143.39 144.953C1143.31 144.63 1143.2 144.346 1143.04 144.102C1142.89 143.852 1142.69 143.656 1142.45 143.516C1142.21 143.37 1141.92 143.297 1141.58 143.297C1141.25 143.297 1140.96 143.37 1140.72 143.516C1140.48 143.656 1140.29 143.852 1140.14 144.102C1139.98 144.346 1139.87 144.63 1139.8 144.953C1139.73 145.271 1139.69 145.612 1139.69 145.977ZM1148.82 143.555V150.281H1146.76V141.828H1148.71L1148.82 143.555ZM1151.39 141.773L1151.36 143.695C1151.24 143.674 1151.11 143.659 1150.97 143.648C1150.83 143.638 1150.7 143.633 1150.57 143.633C1150.25 143.633 1149.97 143.677 1149.73 143.766C1149.49 143.849 1149.29 143.971 1149.13 144.133C1148.98 144.294 1148.86 144.492 1148.77 144.727C1148.69 144.956 1148.64 145.216 1148.63 145.508L1148.19 145.453C1148.19 144.917 1148.24 144.419 1148.35 143.961C1148.46 143.503 1148.62 143.102 1148.83 142.758C1149.04 142.414 1149.3 142.148 1149.61 141.961C1149.93 141.768 1150.29 141.672 1150.7 141.672C1150.82 141.672 1150.94 141.682 1151.07 141.703C1151.21 141.719 1151.31 141.742 1151.39 141.773ZM1158.21 138.906V150.281H1156.06V138.906H1158.21ZM1162.8 143.82V145.516H1157.65V143.82H1162.8ZM1163.4 138.906V140.602H1157.65V138.906H1163.4ZM1166.26 143.555V150.281H1164.2V141.828H1166.15L1166.26 143.555ZM1168.83 141.773L1168.8 143.695C1168.69 143.674 1168.56 143.659 1168.41 143.648C1168.27 143.638 1168.14 143.633 1168.01 143.633C1167.7 143.633 1167.42 143.677 1167.18 143.766C1166.94 143.849 1166.74 143.971 1166.58 144.133C1166.42 144.294 1166.3 144.492 1166.22 144.727C1166.13 144.956 1166.09 145.216 1166.08 145.508L1165.63 145.453C1165.63 144.917 1165.69 144.419 1165.8 143.961C1165.9 143.503 1166.06 143.102 1166.27 142.758C1166.48 142.414 1166.74 142.148 1167.05 141.961C1167.37 141.768 1167.74 141.672 1168.15 141.672C1168.26 141.672 1168.38 141.682 1168.51 141.703C1168.65 141.719 1168.76 141.742 1168.83 141.773ZM1173.31 150.438C1172.67 150.438 1172.09 150.333 1171.58 150.125C1171.07 149.917 1170.64 149.628 1170.28 149.258C1169.92 148.883 1169.65 148.448 1169.46 147.953C1169.27 147.453 1169.18 146.917 1169.18 146.344V146.031C1169.18 145.38 1169.27 144.789 1169.46 144.258C1169.64 143.721 1169.91 143.26 1170.25 142.875C1170.6 142.49 1171.01 142.193 1171.49 141.984C1171.97 141.776 1172.5 141.672 1173.07 141.672C1173.67 141.672 1174.2 141.773 1174.66 141.977C1175.12 142.174 1175.5 142.456 1175.81 142.82C1176.12 143.185 1176.35 143.622 1176.5 144.133C1176.66 144.638 1176.74 145.198 1176.74 145.812V146.68H1170.11V145.258H1174.71V145.102C1174.7 144.773 1174.63 144.474 1174.52 144.203C1174.4 143.927 1174.23 143.708 1173.99 143.547C1173.75 143.38 1173.44 143.297 1173.06 143.297C1172.75 143.297 1172.48 143.365 1172.25 143.5C1172.03 143.63 1171.84 143.818 1171.69 144.062C1171.54 144.302 1171.44 144.589 1171.36 144.922C1171.29 145.255 1171.25 145.625 1171.25 146.031V146.344C1171.25 146.698 1171.3 147.026 1171.39 147.328C1171.49 147.63 1171.64 147.893 1171.82 148.117C1172.02 148.336 1172.25 148.508 1172.51 148.633C1172.78 148.753 1173.09 148.812 1173.43 148.812C1173.87 148.812 1174.26 148.729 1174.6 148.562C1174.96 148.391 1175.27 148.138 1175.53 147.805L1176.57 148.883C1176.39 149.143 1176.15 149.393 1175.85 149.633C1175.55 149.872 1175.19 150.068 1174.77 150.219C1174.35 150.365 1173.86 150.438 1173.31 150.438ZM1181.62 150.438C1180.98 150.438 1180.4 150.333 1179.89 150.125C1179.38 149.917 1178.95 149.628 1178.59 149.258C1178.23 148.883 1177.96 148.448 1177.77 147.953C1177.58 147.453 1177.48 146.917 1177.48 146.344V146.031C1177.48 145.38 1177.58 144.789 1177.77 144.258C1177.95 143.721 1178.22 143.26 1178.56 142.875C1178.91 142.49 1179.32 142.193 1179.8 141.984C1180.28 141.776 1180.8 141.672 1181.38 141.672C1181.98 141.672 1182.51 141.773 1182.97 141.977C1183.43 142.174 1183.81 142.456 1184.12 142.82C1184.42 143.185 1184.66 143.622 1184.81 144.133C1184.97 144.638 1185.05 145.198 1185.05 145.812V146.68H1178.42V145.258H1183.02V145.102C1183.01 144.773 1182.94 144.474 1182.83 144.203C1182.71 143.927 1182.54 143.708 1182.3 143.547C1182.06 143.38 1181.75 143.297 1181.37 143.297C1181.06 143.297 1180.79 143.365 1180.56 143.5C1180.34 143.63 1180.15 143.818 1180 144.062C1179.85 144.302 1179.74 144.589 1179.67 144.922C1179.6 145.255 1179.56 145.625 1179.56 146.031V146.344C1179.56 146.698 1179.61 147.026 1179.7 147.328C1179.8 147.63 1179.95 147.893 1180.13 148.117C1180.33 148.336 1180.55 148.508 1180.82 148.633C1181.09 148.753 1181.4 148.812 1181.74 148.812C1182.17 148.812 1182.57 148.729 1182.91 148.562C1183.27 148.391 1183.58 148.138 1183.84 147.805L1184.88 148.883C1184.7 149.143 1184.46 149.393 1184.16 149.633C1183.86 149.872 1183.5 150.068 1183.08 150.219C1182.66 150.365 1182.17 150.438 1181.62 150.438Z" fill="#082552"/>
        </g>
    </g>
    <defs>
        <filter id="filter0_d_1_6290" x="0" y="0.6875" width="1374" height="365.188" filterUnits="userSpaceOnUse" color-interpolation-filters="sRGB">
            <feFlood flood-opacity="0" result="BackgroundImageFix"/>
            <feColorMatrix in="SourceAlpha" type="matrix" values="0 0 0 0 0 0 0 0 0 0 0 0 0 0 0 0 0 0 127 0" result="hardAlpha"/>
            <feMorphology radius="34" operator="erode" in="SourceAlpha" result="effect1_dropShadow_1_6290"/>
            <feOffset dy="59"/>
            <feGaussianBlur stdDeviation="25.5"/>
            <feComposite in2="hardAlpha" operator="out"/>
            <feColorMatrix type="matrix" values="0 0 0 0 0 0 0 0 0 0.403922 0 0 0 0 0.960784 0 0 0 0.3 0"/>
            <feBlend mode="normal" in2="BackgroundImageFix" result="effect1_dropShadow_1_6290"/>
            <feBlend mode="normal" in="SourceGraphic" in2="effect1_dropShadow_1_6290" result="shape"/>
        </filter>
        <filter id="filter1_d_1_6290" x="1030" y="118.281" width="198" height="62" filterUnits="userSpaceOnUse" color-interpolation-filters="sRGB">
            <feFlood flood-opacity="0" result="BackgroundImageFix"/>
            <feColorMatrix in="SourceAlpha" type="matrix" values="0 0 0 0 0 0 0 0 0 0 0 0 0 0 0 0 0 0 127 0" result="hardAlpha"/>
            <feMorphology radius="1" operator="dilate" in="SourceAlpha" result="effect1_dropShadow_1_6290"/>
            <feOffset dy="4"/>
            <feGaussianBlur stdDeviation="3"/>
            <feComposite in2="hardAlpha" operator="out"/>
            <feColorMatrix type="matrix" values="0 0 0 0 0 0 0 0 0 0.4 0 0 0 0 0.960784 0 0 0 0.18 0"/>
            <feBlend mode="normal" in2="BackgroundImageFix" result="effect1_dropShadow_1_6290"/>
            <feBlend mode="normal" in="SourceGraphic" in2="effect1_dropShadow_1_6290" result="shape"/>
        </filter>
    </defs>
</svg>