<svg xmlns="http://www.w3.org/2000/svg" width="23" height="23" viewBox="0 0 23 23" fill="none">
    <path d="M20.1875 0.1675H2.56C1.20789 0.1675 0.15625 1.26922 0.15625 2.57125V20.1988C0.15625 21.5509 1.20789 22.6025 2.56 22.6025H20.1875C21.4895 22.6025 22.5912 21.5509 22.5912 20.1988V2.57125C22.5912 1.26922 21.4895 0.1675 20.1875 0.1675ZM17.7337 8.12992C17.7337 8.28016 17.7337 8.43039 17.7337 8.58063C17.7337 12.8873 14.4285 17.8952 8.36906 17.8952C6.51617 17.8952 4.81352 17.3944 3.36125 16.4429C3.61164 16.493 3.86203 16.493 4.11242 16.493C5.66484 16.493 7.06703 15.9421 8.21883 15.0908C6.76656 15.0407 5.56469 14.0892 5.11398 12.7872C5.66484 12.8873 6.11555 12.8873 6.61633 12.7371C5.11398 12.4366 4.01227 11.1346 4.01227 9.53211V9.48203C4.41289 9.73242 4.91367 9.88266 5.46453 9.88266C4.56312 9.28172 4.01227 8.28016 4.01227 7.17844C4.01227 6.52742 4.1625 5.97656 4.46297 5.47578C6.06547 7.47891 8.5193 8.78094 11.2235 8.93117C10.7728 6.72773 12.4254 4.87484 14.4285 4.87484C15.38 4.87484 16.2313 5.27547 16.8323 5.92648C17.5834 5.77625 18.2845 5.52586 18.9355 5.12523C18.6852 5.92648 18.1343 6.52742 17.4833 6.92805C18.1343 6.87797 18.7853 6.67766 19.3862 6.42727C18.9355 7.07828 18.3346 7.67922 17.7337 8.12992Z" fill="#0C1825"/>
</svg>